<svg width="19" height="19" viewBox="0 0 19 19" fill="none" xmlns="http://www.w3.org/2000/svg">
<path fill-rule="evenodd" clip-rule="evenodd" d="M10 1C10 0.723858 9.77614 0.5 9.5 0.5C9.22386 0.5 9 0.723858 9 1V9H1C0.723858 9 0.5 9.22386 0.5 9.5C0.5 9.77614 0.723858 10 1 10H9V18C9 18.2761 9.22386 18.5 9.5 18.5C9.77614 18.5 10 18.2761 10 18V10H18C18.2761 10 18.5 9.77614 18.5 9.5C18.5 9.22386 18.2761 9 18 9H10V1Z" fill="url(#paint0_linear_132_38)"/>
<defs>
<linearGradient id="paint0_linear_132_38" x1="22.5" y1="-2" x2="-2.65615e-06" y2="19" gradientUnits="userSpaceOnUse">
<stop stop-color="#40C9FF"/>
<stop offset="1" stop-color="#E81CFF"/>
</linearGradient>
</defs>
</svg>
