<svg width="169" height="98" viewBox="0 0 169 98" fill="none" xmlns="http://www.w3.org/2000/svg">
<g filter="url(#filter0_f_82_639)">
<mask id="mask0_82_639" style="mask-type:alpha" maskUnits="userSpaceOnUse" x="92" y="8" width="49" height="45">
<path d="M94.4567 38.6902H102.436" stroke="black" stroke-width="0.693808"/>
<circle cx="107.986" cy="34.8746" r="0.520356" stroke="black" stroke-width="0.693808"/>
<circle cx="121.515" cy="33.4866" r="0.520356" stroke="black" stroke-width="0.693808"/>
<circle cx="130.188" cy="29.3238" r="0.520356" stroke="black" stroke-width="0.693808"/>
<circle cx="130.188" cy="23.7735" r="0.520356" stroke="black" stroke-width="0.693808"/>
<circle cx="130.188" cy="23.7735" r="0.520356" stroke="black" stroke-width="0.693808"/>
<circle cx="135.045" cy="28.6302" r="0.520356" stroke="black" stroke-width="0.693808"/>
<path d="M135.565 28.6301H140.942" stroke="black" stroke-width="0.693808"/>
<path d="M130.188 24.2939V28.8037" stroke="black" stroke-width="0.693808"/>
<path d="M121.689 28.4568V26.5488H123.423V28.4568H121.689Z" stroke="black" stroke-width="0.693808"/>
<circle cx="114.924" cy="33.4866" r="0.520356" stroke="black" stroke-width="0.693808"/>
<circle cx="124.984" cy="22.0391" r="0.520356" stroke="black" stroke-width="0.693808"/>
<circle cx="124.984" cy="16.4884" r="0.520356" stroke="black" stroke-width="0.693808"/>
<path d="M124.984 17.0088V21.5185" stroke="black" stroke-width="0.693808"/>
<circle cx="121.168" cy="19.2637" r="0.520356" stroke="black" stroke-width="0.693808"/>
<circle cx="121.168" cy="12.6724" r="0.520356" stroke="black" stroke-width="0.693808"/>
<path d="M119.607 35.9151C119.607 36.2025 119.374 36.4355 119.087 36.4355C118.8 36.4355 118.567 36.2025 118.567 35.9151C118.567 35.6277 118.8 35.3948 119.087 35.3948C119.374 35.3948 119.607 35.6277 119.607 35.9151Z" stroke="black" stroke-width="0.693808"/>
<circle cx="123.597" cy="35.9151" r="0.520356" stroke="black" stroke-width="0.693808"/>
<circle cx="129.494" cy="43.2" r="0.520356" stroke="black" stroke-width="0.693808"/>
<circle cx="129.494" cy="43.2" r="0.520356" stroke="black" stroke-width="0.693808"/>
<path d="M130.014 43.2H136.731" stroke="black" stroke-width="0.693808"/>
<circle cx="109.027" cy="48.7506" r="0.520356" stroke="black" stroke-width="0.693808"/>
<circle cx="103.129" cy="38.6903" r="0.520356" stroke="black" stroke-width="0.693808"/>
<circle cx="118.046" cy="48.7506" r="0.520356" stroke="black" stroke-width="0.693808"/>
<circle cx="122.903" cy="44.9346" r="0.520356" stroke="black" stroke-width="0.693808"/>
<circle cx="122.903" cy="48.7506" r="0.520356" stroke="black" stroke-width="0.693808"/>
<path d="M93.9364 36.9558H112.149V31.2319H125.852M96.7116 43.2001H106.598V44.2408H111.975M95.324 40.9452H111.628V42.5063H117.179V36.9558" stroke="black" stroke-width="0.693808"/>
<path d="M115.098 39.9044H113.536V38.5168H115.098V39.9044Z" stroke="black" stroke-width="0.693808"/>
<path d="M109.547 48.7505H117.526" stroke="black" stroke-width="0.693808"/>
<path d="M133.83 47.363H129.147V48.4037H125.852V51.6993" stroke="black" stroke-width="0.693808"/>
<path d="M115.444 33.4868H120.821M119.607 35.9151H123.076" stroke="black" stroke-width="0.693808"/>
<path d="M129.321 8.50977H115.791" stroke="black" stroke-width="0.693808"/>
<path d="M106.078 52.046H126.198M109.758 45.9752H120.128V43.2L125.852 43.2V45.9752" stroke="black" stroke-width="0.693808"/>
<path d="M122.903 45.2815V48.2302" stroke="black" stroke-width="0.693808"/>
<path d="M121.168 13.1929C121.168 14.4417 121.168 17.4135 121.168 18.7433" stroke="black" stroke-width="0.693808"/>
<path d="M128.8 14.7541H132.963V17.7028H128.8V14.7541Z" stroke="black" stroke-width="0.693808"/>
<path d="M130.014 19.9576H135.912V17.009H137.646M132.79 11.4585H123.423V14.0603" stroke="black" stroke-width="0.693808"/>
<path d="M140.075 37.823H133.83V40.7717H122.556" stroke="black" stroke-width="0.693808"/>
<path d="M127.76 45.4551H134.871" stroke="black" stroke-width="0.693808"/>
<path d="M138.687 40.5983H135.912V39.2107H138.687V40.5983Z" stroke="black" stroke-width="0.693808"/>
<path d="M127.586 26.8958V33.14H134.698" stroke="black" stroke-width="0.693808"/>
<path d="M125.852 34.8745H127.239H133.137" stroke="black" stroke-width="0.693808"/>
<path d="M98.4462 45.2815H102.609" stroke="black" stroke-width="0.693808"/>
<path d="M119.434 38.6902H124.291" stroke="black" stroke-width="0.693808"/>
<path d="M140.248 35.7417H136.085M127.239 38.6904H131.922" stroke="black" stroke-width="0.693808"/>
<path d="M131.922 31.0586H140.075" stroke="black" stroke-width="0.693808"/>
<path d="M93.5895 34.8745H107.466" stroke="black" stroke-width="0.693808"/>
<path d="M92.8958 31.4053H108.506V28.8036H118.74M139.728 21.8655H127.413V24.4673H122.729V22.9062H119.434M140.768 26.2018H133.31M140.768 23.9469H136.606" stroke="black" stroke-width="0.693808"/>
</mask>
<g mask="url(#mask0_82_639)">
<path fill-rule="evenodd" clip-rule="evenodd" d="M116.832 56.0356C131.201 56.0356 142.85 44.387 142.85 30.0178C142.85 15.6486 131.201 4 116.832 4C102.463 4 90.8143 15.6486 90.8143 30.0178C90.8143 44.387 102.463 56.0356 116.832 56.0356Z" fill="url(#paint0_linear_82_639)"/>
</g>
<g filter="url(#filter1_d_82_639)">
<circle cx="116.832" cy="30.0178" r="24.8036" stroke="url(#paint1_linear_82_639)" stroke-width="2.42833"/>
<path fill-rule="evenodd" clip-rule="evenodd" d="M162.531 10.2325C162.553 10.2831 162.643 10.5173 162.452 11.123C162.255 11.7478 161.807 12.5936 160.998 13.6545C159.383 15.7737 156.645 18.3422 152.887 21.1862C145.404 26.85 134.308 33.2828 121.377 39.0918C108.446 44.9008 96.2674 48.9238 87.0629 50.7569C82.441 51.6774 78.7027 52.018 76.0454 51.8184C74.7151 51.7184 73.7853 51.4915 73.1873 51.2241C72.6074 50.9648 72.4921 50.742 72.4693 50.6913C72.4466 50.6407 72.3566 50.4065 72.5479 49.8008C72.7451 49.176 73.1931 48.3302 74.0018 47.2693C75.6174 45.1501 78.3549 42.5816 82.1126 39.7376C85.1949 37.4049 88.8899 34.9417 93.0735 32.4454L92.7268 31.2318V30.0176V29.8284C77.6186 38.7146 68.316 47.3718 70.2542 51.6864C72.945 57.6759 96.2788 53.0289 122.372 41.3069C148.465 29.5849 167.436 15.2269 164.746 9.23738C162.784 4.8711 149.852 6.15734 132.879 11.7163L133.835 12.6724L134.679 13.6857C139.526 12.1338 144.003 10.9503 147.937 10.1669C152.559 9.24642 156.297 8.90576 158.955 9.10545C160.285 9.20541 161.215 9.43229 161.813 9.69973C162.393 9.95904 162.508 10.1818 162.531 10.2325Z" fill="url(#paint2_linear_82_639)"/>
</g>
</g>
<mask id="mask1_82_639" style="mask-type:alpha" maskUnits="userSpaceOnUse" x="92" y="8" width="49" height="45">
<path d="M94.4567 38.6902H102.436" stroke="black" stroke-width="0.693808"/>
<circle cx="107.986" cy="34.8746" r="0.520356" stroke="black" stroke-width="0.693808"/>
<circle cx="121.515" cy="33.4866" r="0.520356" stroke="black" stroke-width="0.693808"/>
<circle cx="130.188" cy="29.3238" r="0.520356" stroke="black" stroke-width="0.693808"/>
<circle cx="130.188" cy="23.7735" r="0.520356" stroke="black" stroke-width="0.693808"/>
<circle cx="130.188" cy="23.7735" r="0.520356" stroke="black" stroke-width="0.693808"/>
<circle cx="135.045" cy="28.6302" r="0.520356" stroke="black" stroke-width="0.693808"/>
<path d="M135.565 28.6301H140.942" stroke="black" stroke-width="0.693808"/>
<path d="M130.188 24.2939V28.8037" stroke="black" stroke-width="0.693808"/>
<path d="M121.689 28.4568V26.5488H123.423V28.4568H121.689Z" stroke="black" stroke-width="0.693808"/>
<circle cx="114.924" cy="33.4866" r="0.520356" stroke="black" stroke-width="0.693808"/>
<circle cx="124.984" cy="22.0391" r="0.520356" stroke="black" stroke-width="0.693808"/>
<circle cx="124.984" cy="16.4884" r="0.520356" stroke="black" stroke-width="0.693808"/>
<path d="M124.984 17.0088V21.5185" stroke="black" stroke-width="0.693808"/>
<circle cx="121.168" cy="19.2637" r="0.520356" stroke="black" stroke-width="0.693808"/>
<circle cx="121.168" cy="12.6724" r="0.520356" stroke="black" stroke-width="0.693808"/>
<path d="M119.607 35.9151C119.607 36.2025 119.374 36.4355 119.087 36.4355C118.8 36.4355 118.567 36.2025 118.567 35.9151C118.567 35.6277 118.8 35.3948 119.087 35.3948C119.374 35.3948 119.607 35.6277 119.607 35.9151Z" stroke="black" stroke-width="0.693808"/>
<circle cx="123.597" cy="35.9151" r="0.520356" stroke="black" stroke-width="0.693808"/>
<circle cx="129.494" cy="43.2" r="0.520356" stroke="black" stroke-width="0.693808"/>
<circle cx="129.494" cy="43.2" r="0.520356" stroke="black" stroke-width="0.693808"/>
<path d="M130.014 43.2H136.731" stroke="black" stroke-width="0.693808"/>
<circle cx="109.027" cy="48.7506" r="0.520356" stroke="black" stroke-width="0.693808"/>
<circle cx="103.129" cy="38.6903" r="0.520356" stroke="black" stroke-width="0.693808"/>
<circle cx="118.046" cy="48.7506" r="0.520356" stroke="black" stroke-width="0.693808"/>
<circle cx="122.903" cy="44.9346" r="0.520356" stroke="black" stroke-width="0.693808"/>
<circle cx="122.903" cy="48.7506" r="0.520356" stroke="black" stroke-width="0.693808"/>
<path d="M93.9364 36.9558H112.149V31.2319H125.852M96.7116 43.2001H106.598V44.2408H111.975M95.324 40.9452H111.628V42.5063H117.179V36.9558" stroke="black" stroke-width="0.693808"/>
<path d="M115.098 39.9044H113.536V38.5168H115.098V39.9044Z" stroke="black" stroke-width="0.693808"/>
<path d="M109.547 48.7505H117.526" stroke="black" stroke-width="0.693808"/>
<path d="M133.83 47.363H129.147V48.4037H125.852V51.6993" stroke="black" stroke-width="0.693808"/>
<path d="M115.444 33.4868H120.821M119.607 35.9151H123.076" stroke="black" stroke-width="0.693808"/>
<path d="M129.321 8.50977H115.791" stroke="black" stroke-width="0.693808"/>
<path d="M106.078 52.046H126.198M109.758 45.9752H120.128V43.2L125.852 43.2V45.9752" stroke="black" stroke-width="0.693808"/>
<path d="M122.903 45.2815V48.2302" stroke="black" stroke-width="0.693808"/>
<path d="M121.168 13.1929C121.168 14.4417 121.168 17.4135 121.168 18.7433" stroke="black" stroke-width="0.693808"/>
<path d="M128.8 14.7541H132.963V17.7028H128.8V14.7541Z" stroke="black" stroke-width="0.693808"/>
<path d="M130.014 19.9576H135.912V17.009H137.646M132.79 11.4585H123.423V14.0603" stroke="black" stroke-width="0.693808"/>
<path d="M140.075 37.823H133.83V40.7717H122.556" stroke="black" stroke-width="0.693808"/>
<path d="M127.76 45.4551H134.871" stroke="black" stroke-width="0.693808"/>
<path d="M138.687 40.5983H135.912V39.2107H138.687V40.5983Z" stroke="black" stroke-width="0.693808"/>
<path d="M127.586 26.8958V33.14H134.698" stroke="black" stroke-width="0.693808"/>
<path d="M125.852 34.8745H127.239H133.137" stroke="black" stroke-width="0.693808"/>
<path d="M98.4462 45.2815H102.609" stroke="black" stroke-width="0.693808"/>
<path d="M119.434 38.6902H124.291" stroke="black" stroke-width="0.693808"/>
<path d="M140.248 35.7417H136.085M127.239 38.6904H131.922" stroke="black" stroke-width="0.693808"/>
<path d="M131.922 31.0586H140.075" stroke="black" stroke-width="0.693808"/>
<path d="M93.5895 34.8745H107.466" stroke="black" stroke-width="0.693808"/>
<path d="M92.8958 31.4053H108.506V28.8036H118.74M139.728 21.8655H127.413V24.4673H122.729V22.9062H119.434M140.768 26.2018H133.31M140.768 23.9469H136.606" stroke="black" stroke-width="0.693808"/>
</mask>
<g mask="url(#mask1_82_639)">
<path fill-rule="evenodd" clip-rule="evenodd" d="M116.832 56.0356C131.201 56.0356 142.85 44.387 142.85 30.0178C142.85 15.6486 131.201 4 116.832 4C102.463 4 90.8143 15.6486 90.8143 30.0178C90.8143 44.387 102.463 56.0356 116.832 56.0356Z" fill="url(#paint3_linear_82_639)"/>
</g>
<g filter="url(#filter2_d_82_639)">
<circle cx="116.832" cy="30.0178" r="24.8036" stroke="url(#paint4_linear_82_639)" stroke-width="2.42833"/>
<path fill-rule="evenodd" clip-rule="evenodd" d="M162.531 10.2325C162.553 10.2831 162.643 10.5173 162.452 11.123C162.255 11.7478 161.807 12.5936 160.998 13.6545C159.383 15.7737 156.645 18.3422 152.887 21.1862C145.404 26.85 134.308 33.2828 121.377 39.0918C108.446 44.9008 96.2674 48.9238 87.0629 50.7569C82.441 51.6774 78.7027 52.018 76.0454 51.8184C74.7151 51.7184 73.7853 51.4915 73.1873 51.2241C72.6074 50.9648 72.4921 50.742 72.4693 50.6913C72.4466 50.6407 72.3566 50.4065 72.5479 49.8008C72.7451 49.176 73.1931 48.3302 74.0018 47.2693C75.6174 45.1501 78.3549 42.5816 82.1126 39.7376C85.1949 37.4049 88.8899 34.9417 93.0735 32.4454L92.7268 31.2318V30.0176V29.8284C77.6186 38.7146 68.316 47.3718 70.2542 51.6864C72.945 57.6759 96.2788 53.0289 122.372 41.3069C148.465 29.5849 167.436 15.2269 164.746 9.23738C162.784 4.8711 149.852 6.15734 132.879 11.7163L133.835 12.6724L134.679 13.6857C139.526 12.1338 144.003 10.9503 147.937 10.1669C152.559 9.24642 156.297 8.90576 158.955 9.10545C160.285 9.20541 161.215 9.43229 161.813 9.69973C162.393 9.95904 162.508 10.1818 162.531 10.2325Z" fill="url(#paint5_linear_82_639)"/>
</g>
<path d="M4.59375 46H3.59375V47H4.59375V46ZM4.59375 17.9922V16.9922H3.59375V17.9922H4.59375ZM8.59766 35.6094V34.6094H7.59766V35.6094H8.59766ZM8.59766 46V47H9.59766V46H8.59766ZM8.59766 31.6055H7.59766V32.6055H8.59766V31.6055ZM8.59766 21.9961V20.9961H7.59766V21.9961H8.59766ZM5.59375 46V17.9922H3.59375V46H5.59375ZM4.59375 18.9922H19.9258V16.9922H4.59375V18.9922ZM19.9258 18.9922C22.0365 18.9922 23.4361 19.5206 24.3153 20.4024C25.1951 21.2847 25.7227 22.6899 25.7227 24.8086H27.7227C27.7227 22.383 27.1174 20.38 25.7316 18.9902C24.3452 17.5998 22.3463 16.9922 19.9258 16.9922V18.9922ZM25.7227 24.8086V28.793H27.7227V24.8086H25.7227ZM25.7227 28.793C25.7227 30.9117 25.1951 32.3169 24.3153 33.1992C23.4361 34.0809 22.0365 34.6094 19.9258 34.6094V36.6094C22.3463 36.6094 24.3452 36.0017 25.7316 34.6114C27.1174 33.2215 27.7227 31.2185 27.7227 28.793H25.7227ZM19.9258 34.6094H8.59766V36.6094H19.9258V34.6094ZM7.59766 35.6094V46H9.59766V35.6094H7.59766ZM8.59766 45H4.59375V47H8.59766V45ZM8.59766 32.6055H19.7109V30.6055H8.59766V32.6055ZM19.7109 32.6055C20.8885 32.6055 21.9795 32.3527 22.7227 31.6095L21.3085 30.1952C21.1142 30.3895 20.6688 30.6055 19.7109 30.6055V32.6055ZM22.7227 31.6095C23.4659 30.8662 23.7188 29.7752 23.7188 28.5977H21.7188C21.7188 29.5556 21.5028 30.001 21.3085 30.1952L22.7227 31.6095ZM23.7188 28.5977V25.0039H21.7188V28.5977H23.7188ZM23.7188 25.0039C23.7188 23.8264 23.4659 22.7353 22.7227 21.9921L21.3085 23.4063C21.5028 23.6006 21.7188 24.046 21.7188 25.0039H23.7188ZM22.7227 21.9921C21.9795 21.2489 20.8885 20.9961 19.7109 20.9961V22.9961C20.6688 22.9961 21.1142 23.212 21.3085 23.4063L22.7227 21.9921ZM19.7109 20.9961H8.59766V22.9961H19.7109V20.9961ZM7.59766 21.9961V31.6055H9.59766V21.9961H7.59766ZM32.6406 20.4531L33.5585 20.8501L33.5623 20.8412L32.6406 20.4531ZM33.5 19.1836L34.1941 19.9034L34.2007 19.8971L34.2071 19.8907L33.5 19.1836ZM34.7695 18.3242L35.1665 19.2421L35.1779 19.237L34.7695 18.3242ZM53.0703 18.3242L52.6528 19.2329L52.6674 19.2396L52.6823 19.2459L53.0703 18.3242ZM54.3594 19.1836L53.6523 19.8907L53.6587 19.8971L53.6652 19.9034L54.3594 19.1836ZM55.2188 20.4531L54.2971 20.8412L54.3009 20.85L55.2188 20.4531ZM55.5312 25.6094V26.6094H56.5312V25.6094H55.5312ZM51.5273 25.6094H50.5273V26.6094H51.5273V25.6094ZM51.5273 21.9961H52.5273V20.9961H51.5273V21.9961ZM36.332 21.9961V20.9961H35.332V21.9961H36.332ZM36.332 41.9961H35.332V42.9961H36.332V41.9961ZM51.5273 41.9961V42.9961H52.5273V41.9961H51.5273ZM51.5273 38.4023V37.4023H50.5273V38.4023H51.5273ZM55.5312 38.4023H56.5312V37.4023H55.5312V38.4023ZM55.2188 43.5586L56.1367 43.9555L56.1404 43.9467L55.2188 43.5586ZM53.0703 45.6875L52.6822 44.7658L52.6734 44.7696L53.0703 45.6875ZM34.7695 45.6875L34.3726 46.6054L34.3815 46.6091L34.7695 45.6875ZM33.5 44.8281L32.7929 45.5352L33.5 44.8281ZM32.6406 43.5586L31.7189 43.9467L31.7228 43.9555L32.6406 43.5586ZM33.3281 21.9961C33.3281 21.5799 33.4066 21.2012 33.5585 20.85L31.7228 20.0562C31.458 20.6685 31.3281 21.3185 31.3281 21.9961H33.3281ZM33.5623 20.8412C33.7212 20.4636 33.9329 20.1554 34.1941 19.9034L32.8059 18.4637C32.338 18.9149 31.9767 19.453 31.719 20.0651L33.5623 20.8412ZM34.2071 19.8907C34.4809 19.6169 34.7983 19.4013 35.1664 19.2421L34.3726 17.4064C33.7772 17.6638 33.2483 18.0211 32.7929 18.4765L34.2071 19.8907ZM35.1779 19.237C35.543 19.0737 35.9246 18.9922 36.332 18.9922V16.9922C35.6457 16.9922 34.9856 17.132 34.3612 17.4114L35.1779 19.237ZM36.332 18.9922H51.5273V16.9922H36.332V18.9922ZM51.5273 18.9922C51.9348 18.9922 52.3062 19.0736 52.6528 19.2329L53.4878 17.4155C52.8709 17.1321 52.2137 16.9922 51.5273 16.9922V18.9922ZM52.6823 19.2459C53.0628 19.4061 53.3829 19.6214 53.6523 19.8907L55.0665 18.4765C54.6067 18.0167 54.0674 17.659 53.4584 17.4026L52.6823 19.2459ZM53.6652 19.9034C53.9265 20.1554 54.1381 20.4636 54.2971 20.8412L56.1404 20.0651C55.8827 19.453 55.5214 18.9149 55.0535 18.4637L53.6652 19.9034ZM54.3009 20.85C54.4528 21.2012 54.5312 21.5799 54.5312 21.9961H56.5312C56.5312 21.3185 56.4014 20.6685 56.1366 20.0562L54.3009 20.85ZM54.5312 21.9961V25.6094H56.5312V21.9961H54.5312ZM55.5312 24.6094H51.5273V26.6094H55.5312V24.6094ZM52.5273 25.6094V21.9961H50.5273V25.6094H52.5273ZM51.5273 20.9961H36.332V22.9961H51.5273V20.9961ZM35.332 21.9961V41.9961H37.332V21.9961H35.332ZM36.332 42.9961H51.5273V40.9961H36.332V42.9961ZM52.5273 41.9961V38.4023H50.5273V41.9961H52.5273ZM51.5273 39.4023H55.5312V37.4023H51.5273V39.4023ZM54.5312 38.4023V41.9961H56.5312V38.4023H54.5312ZM54.5312 41.9961C54.5312 42.4122 54.4527 42.8009 54.2971 43.1705L56.1404 43.9467C56.4014 43.3267 56.5312 42.6737 56.5312 41.9961H54.5312ZM54.3009 43.1617C54.1417 43.5298 53.926 43.8472 53.6523 44.121L55.0665 45.5352C55.5219 45.0798 55.8791 44.5509 56.1366 43.9555L54.3009 43.1617ZM53.6523 44.121C53.3829 44.3904 53.0628 44.6056 52.6823 44.7659L53.4584 46.6091C54.0674 46.3527 54.6067 45.9951 55.0665 45.5352L53.6523 44.121ZM52.6734 44.7696C52.3222 44.9215 51.9435 45 51.5273 45V47C52.2049 47 52.8549 46.8701 53.4672 46.6054L52.6734 44.7696ZM51.5273 45H36.332V47H51.5273V45ZM36.332 45C35.9159 45 35.5272 44.9215 35.1576 44.7659L34.3815 46.6091C35.0014 46.8702 35.6544 47 36.332 47V45ZM35.1664 44.7696C34.7983 44.6104 34.4809 44.3948 34.2071 44.121L32.7929 45.5352C33.2483 45.9906 33.7772 46.3479 34.3726 46.6054L35.1664 44.7696ZM34.2071 44.121C33.9333 43.8472 33.7177 43.5298 33.5585 43.1617L31.7228 43.9555C31.9802 44.5509 32.3375 45.0798 32.7929 45.5352L34.2071 44.121ZM33.5623 43.1705C33.4066 42.8009 33.3281 42.4122 33.3281 41.9961H31.3281C31.3281 42.6737 31.458 43.3267 31.719 43.9467L33.5623 43.1705ZM33.3281 41.9961V21.9961H31.3281V41.9961H33.3281ZM4.59375 89H3.59375V90H4.59375V89ZM4.59375 60.9922V59.9922H3.59375V60.9922H4.59375ZM8.59766 78.6094V77.6094H7.59766V78.6094H8.59766ZM8.59766 89V90H9.59766V89H8.59766ZM8.59766 74.6055H7.59766V75.6055H8.59766V74.6055ZM8.59766 64.9961V63.9961H7.59766V64.9961H8.59766ZM5.59375 89V60.9922H3.59375V89H5.59375ZM4.59375 61.9922H19.9258V59.9922H4.59375V61.9922ZM19.9258 61.9922C22.0365 61.9922 23.4361 62.5206 24.3153 63.4024C25.1951 64.2847 25.7227 65.6899 25.7227 67.8086H27.7227C27.7227 65.383 27.1174 63.38 25.7316 61.9902C24.3452 60.5998 22.3463 59.9922 19.9258 59.9922V61.9922ZM25.7227 67.8086V71.793H27.7227V67.8086H25.7227ZM25.7227 71.793C25.7227 73.9117 25.1951 75.3169 24.3153 76.1992C23.4361 77.0809 22.0365 77.6094 19.9258 77.6094V79.6094C22.3463 79.6094 24.3452 79.0017 25.7316 77.6114C27.1174 76.2215 27.7227 74.2185 27.7227 71.793H25.7227ZM19.9258 77.6094H8.59766V79.6094H19.9258V77.6094ZM7.59766 78.6094V89H9.59766V78.6094H7.59766ZM8.59766 88H4.59375V90H8.59766V88ZM8.59766 75.6055H19.7109V73.6055H8.59766V75.6055ZM19.7109 75.6055C20.8885 75.6055 21.9795 75.3527 22.7227 74.6095L21.3085 73.1952C21.1142 73.3895 20.6688 73.6055 19.7109 73.6055V75.6055ZM22.7227 74.6095C23.4659 73.8662 23.7188 72.7752 23.7188 71.5977H21.7188C21.7188 72.5556 21.5028 73.0009 21.3085 73.1952L22.7227 74.6095ZM23.7188 71.5977V68.0039H21.7188V71.5977H23.7188ZM23.7188 68.0039C23.7188 66.8264 23.4659 65.7353 22.7227 64.9921L21.3085 66.4063C21.5028 66.6006 21.7188 67.046 21.7188 68.0039H23.7188ZM22.7227 64.9921C21.9795 64.2489 20.8885 63.9961 19.7109 63.9961V65.9961C20.6688 65.9961 21.1142 66.212 21.3085 66.4063L22.7227 64.9921ZM19.7109 63.9961H8.59766V65.9961H19.7109V63.9961ZM7.59766 64.9961V74.6055H9.59766V64.9961H7.59766ZM36.332 60.9922H37.332V59.9922H36.332V60.9922ZM36.332 84.9961H35.332V85.9961H36.332V84.9961ZM50.7266 84.9961H51.7266V83.9961H50.7266V84.9961ZM50.7266 89V90H51.7266V89H50.7266ZM32.3281 89H31.3281V90H32.3281V89ZM32.3281 60.9922V59.9922H31.3281V60.9922H32.3281ZM35.332 60.9922V84.9961H37.332V60.9922H35.332ZM36.332 85.9961H50.7266V83.9961H36.332V85.9961ZM49.7266 84.9961V89H51.7266V84.9961H49.7266ZM50.7266 88H32.3281V90H50.7266V88ZM33.3281 89V60.9922H31.3281V89H33.3281ZM32.3281 61.9922H36.332V59.9922H32.3281V61.9922ZM67.9336 60.9922L68.8666 60.6324L68.6197 59.9922H67.9336V60.9922ZM78.7344 89V90H80.1918L79.6674 88.6402L78.7344 89ZM74.7305 89L73.7972 89.3592L74.0438 90H74.7305V89ZM72.25 82.5547L73.1833 82.1955L72.9367 81.5547H72.25V82.5547ZM59.6133 82.5547V81.5547H58.9266L58.68 82.1955L59.6133 82.5547ZM57.1328 89V90H57.8195L58.0661 89.3592L57.1328 89ZM53.1289 89L52.1959 88.6402L51.6715 90H53.1289V89ZM63.9297 60.9922V59.9922H63.2435L62.9967 60.6324L63.9297 60.9922ZM61.1367 78.5508L60.2048 78.188L59.6744 79.5508H61.1367V78.5508ZM70.707 78.5508V79.5508H72.165L71.6399 78.1906L70.707 78.5508ZM65.9414 66.207L66.8743 65.8469L65.9452 63.4404L65.0095 65.8443L65.9414 66.207ZM67.0006 61.352L77.8013 89.3598L79.6674 88.6402L68.8666 60.6324L67.0006 61.352ZM78.7344 88H74.7305V90H78.7344V88ZM75.6637 88.6408L73.1833 82.1955L71.3167 82.9139L73.7972 89.3592L75.6637 88.6408ZM72.25 81.5547H59.6133V83.5547H72.25V81.5547ZM58.68 82.1955L56.1995 88.6408L58.0661 89.3592L60.5466 82.9139L58.68 82.1955ZM57.1328 88H53.1289V90H57.1328V88ZM54.0619 89.3598L64.8627 61.352L62.9967 60.6324L52.1959 88.6402L54.0619 89.3598ZM63.9297 61.9922H67.9336V59.9922H63.9297V61.9922ZM61.1367 79.5508H70.707V77.5508H61.1367V79.5508ZM71.6399 78.1906L66.8743 65.8469L65.0085 66.5672L69.7741 78.9109L71.6399 78.1906ZM65.0095 65.8443L60.2048 78.188L62.0686 78.9135L66.8733 66.5698L65.0095 65.8443ZM87.543 89V90H88.543V89H87.543ZM83.5391 89H82.5391V90H83.5391V89ZM83.5391 60.9922V59.9922H82.5391V60.9922H83.5391ZM87.543 60.9922L88.3333 60.3795L88.0331 59.9922H87.543V60.9922ZM104.379 82.7109L103.589 83.3236L105.379 85.6332V82.7109H104.379ZM104.379 60.9922V59.9922H103.379V60.9922H104.379ZM108.383 60.9922H109.383V59.9922H108.383V60.9922ZM108.383 89V90H109.383V89H108.383ZM104.379 89L103.589 89.6127L103.889 90H104.379V89ZM87.543 67.2812L88.3333 66.6686L86.543 64.359V67.2812H87.543ZM87.543 88H83.5391V90H87.543V88ZM84.5391 89V60.9922H82.5391V89H84.5391ZM83.5391 61.9922H87.543V59.9922H83.5391V61.9922ZM86.7526 61.6048L103.589 83.3236L105.169 82.0983L88.3333 60.3795L86.7526 61.6048ZM105.379 82.7109V60.9922H103.379V82.7109H105.379ZM104.379 61.9922H108.383V59.9922H104.379V61.9922ZM107.383 60.9922V89H109.383V60.9922H107.383ZM108.383 88H104.379V90H108.383V88ZM105.169 88.3873L88.3333 66.6686L86.7526 67.8939L103.589 89.6127L105.169 88.3873ZM86.543 67.2812V89H88.543V67.2812H86.543ZM115.57 60.9922V59.9922H114.57V60.9922H115.57ZM135.98 60.9922H136.98V59.9922H135.98V60.9922ZM135.98 64.9961V65.9961H136.98V64.9961H135.98ZM119.574 64.9961V63.9961H118.574V64.9961H119.574ZM119.574 73.0039H118.574V74.0039H119.574V73.0039ZM133.578 73.0039H134.578V72.0039H133.578V73.0039ZM133.578 77.0078V78.0078H134.578V77.0078H133.578ZM119.574 77.0078V76.0078H118.574V77.0078H119.574ZM119.574 84.9961H118.574V85.9961H119.574V84.9961ZM135.98 84.9961H136.98V83.9961H135.98V84.9961ZM135.98 89V90H136.98V89H135.98ZM115.57 89H114.57V90H115.57V89ZM115.57 61.9922H135.98V59.9922H115.57V61.9922ZM134.98 60.9922V64.9961H136.98V60.9922H134.98ZM135.98 63.9961H119.574V65.9961H135.98V63.9961ZM118.574 64.9961V73.0039H120.574V64.9961H118.574ZM119.574 74.0039H133.578V72.0039H119.574V74.0039ZM132.578 73.0039V77.0078H134.578V73.0039H132.578ZM133.578 76.0078H119.574V78.0078H133.578V76.0078ZM118.574 77.0078V84.9961H120.574V77.0078H118.574ZM119.574 85.9961H135.98V83.9961H119.574V85.9961ZM134.98 84.9961V89H136.98V84.9961H134.98ZM135.98 88H115.57V90H135.98V88ZM116.57 89V60.9922H114.57V89H116.57ZM139.574 60.9922V59.9922H138.574V60.9922H139.574ZM161.977 60.9922H162.977V59.9922H161.977V60.9922ZM161.977 64.9961V65.9961H162.977V64.9961H161.977ZM152.777 64.9961V63.9961H151.777V64.9961H152.777ZM152.777 89V90H153.777V89H152.777ZM148.773 89H147.773V90H148.773V89ZM148.773 64.9961H149.773V63.9961H148.773V64.9961ZM139.574 64.9961H138.574V65.9961H139.574V64.9961ZM139.574 61.9922H161.977V59.9922H139.574V61.9922ZM160.977 60.9922V64.9961H162.977V60.9922H160.977ZM161.977 63.9961H152.777V65.9961H161.977V63.9961ZM151.777 64.9961V89H153.777V64.9961H151.777ZM152.777 88H148.773V90H152.777V88ZM149.773 89V64.9961H147.773V89H149.773ZM148.773 63.9961H139.574V65.9961H148.773V63.9961ZM140.574 64.9961V60.9922H138.574V64.9961H140.574Z" fill="url(#paint6_linear_82_639)"/>
<g filter="url(#filter3_f_82_639)">
<path d="M4.59375 46H3.59375V47H4.59375V46ZM4.59375 17.9922V16.9922H3.59375V17.9922H4.59375ZM8.59766 35.6094V34.6094H7.59766V35.6094H8.59766ZM8.59766 46V47H9.59766V46H8.59766ZM8.59766 31.6055H7.59766V32.6055H8.59766V31.6055ZM8.59766 21.9961V20.9961H7.59766V21.9961H8.59766ZM5.59375 46V17.9922H3.59375V46H5.59375ZM4.59375 18.9922H19.9258V16.9922H4.59375V18.9922ZM19.9258 18.9922C22.0365 18.9922 23.4361 19.5206 24.3153 20.4024C25.1951 21.2847 25.7227 22.6899 25.7227 24.8086H27.7227C27.7227 22.383 27.1174 20.38 25.7316 18.9902C24.3452 17.5998 22.3463 16.9922 19.9258 16.9922V18.9922ZM25.7227 24.8086V28.793H27.7227V24.8086H25.7227ZM25.7227 28.793C25.7227 30.9117 25.1951 32.3169 24.3153 33.1992C23.4361 34.0809 22.0365 34.6094 19.9258 34.6094V36.6094C22.3463 36.6094 24.3452 36.0017 25.7316 34.6114C27.1174 33.2215 27.7227 31.2185 27.7227 28.793H25.7227ZM19.9258 34.6094H8.59766V36.6094H19.9258V34.6094ZM7.59766 35.6094V46H9.59766V35.6094H7.59766ZM8.59766 45H4.59375V47H8.59766V45ZM8.59766 32.6055H19.7109V30.6055H8.59766V32.6055ZM19.7109 32.6055C20.8885 32.6055 21.9795 32.3527 22.7227 31.6095L21.3085 30.1952C21.1142 30.3895 20.6688 30.6055 19.7109 30.6055V32.6055ZM22.7227 31.6095C23.4659 30.8662 23.7188 29.7752 23.7188 28.5977H21.7188C21.7188 29.5556 21.5028 30.001 21.3085 30.1952L22.7227 31.6095ZM23.7188 28.5977V25.0039H21.7188V28.5977H23.7188ZM23.7188 25.0039C23.7188 23.8264 23.4659 22.7353 22.7227 21.9921L21.3085 23.4063C21.5028 23.6006 21.7188 24.046 21.7188 25.0039H23.7188ZM22.7227 21.9921C21.9795 21.2489 20.8885 20.9961 19.7109 20.9961V22.9961C20.6688 22.9961 21.1142 23.212 21.3085 23.4063L22.7227 21.9921ZM19.7109 20.9961H8.59766V22.9961H19.7109V20.9961ZM7.59766 21.9961V31.6055H9.59766V21.9961H7.59766ZM32.6406 20.4531L33.5585 20.8501L33.5623 20.8412L32.6406 20.4531ZM33.5 19.1836L34.1941 19.9034L34.2007 19.8971L34.2071 19.8907L33.5 19.1836ZM34.7695 18.3242L35.1665 19.2421L35.1779 19.237L34.7695 18.3242ZM53.0703 18.3242L52.6528 19.2329L52.6674 19.2396L52.6823 19.2459L53.0703 18.3242ZM54.3594 19.1836L53.6523 19.8907L53.6587 19.8971L53.6652 19.9034L54.3594 19.1836ZM55.2188 20.4531L54.2971 20.8412L54.3009 20.85L55.2188 20.4531ZM55.5312 25.6094V26.6094H56.5312V25.6094H55.5312ZM51.5273 25.6094H50.5273V26.6094H51.5273V25.6094ZM51.5273 21.9961H52.5273V20.9961H51.5273V21.9961ZM36.332 21.9961V20.9961H35.332V21.9961H36.332ZM36.332 41.9961H35.332V42.9961H36.332V41.9961ZM51.5273 41.9961V42.9961H52.5273V41.9961H51.5273ZM51.5273 38.4023V37.4023H50.5273V38.4023H51.5273ZM55.5312 38.4023H56.5312V37.4023H55.5312V38.4023ZM55.2188 43.5586L56.1367 43.9555L56.1404 43.9467L55.2188 43.5586ZM53.0703 45.6875L52.6822 44.7658L52.6734 44.7696L53.0703 45.6875ZM34.7695 45.6875L34.3726 46.6054L34.3815 46.6091L34.7695 45.6875ZM33.5 44.8281L32.7929 45.5352L33.5 44.8281ZM32.6406 43.5586L31.7189 43.9467L31.7228 43.9555L32.6406 43.5586ZM33.3281 21.9961C33.3281 21.5799 33.4066 21.2012 33.5585 20.85L31.7228 20.0562C31.458 20.6685 31.3281 21.3185 31.3281 21.9961H33.3281ZM33.5623 20.8412C33.7212 20.4636 33.9329 20.1554 34.1941 19.9034L32.8059 18.4637C32.338 18.9149 31.9767 19.453 31.719 20.0651L33.5623 20.8412ZM34.2071 19.8907C34.4809 19.6169 34.7983 19.4013 35.1664 19.2421L34.3726 17.4064C33.7772 17.6638 33.2483 18.0211 32.7929 18.4765L34.2071 19.8907ZM35.1779 19.237C35.543 19.0737 35.9246 18.9922 36.332 18.9922V16.9922C35.6457 16.9922 34.9856 17.132 34.3612 17.4114L35.1779 19.237ZM36.332 18.9922H51.5273V16.9922H36.332V18.9922ZM51.5273 18.9922C51.9348 18.9922 52.3062 19.0736 52.6528 19.2329L53.4878 17.4155C52.8709 17.1321 52.2137 16.9922 51.5273 16.9922V18.9922ZM52.6823 19.2459C53.0628 19.4061 53.3829 19.6214 53.6523 19.8907L55.0665 18.4765C54.6067 18.0167 54.0674 17.659 53.4584 17.4026L52.6823 19.2459ZM53.6652 19.9034C53.9265 20.1554 54.1381 20.4636 54.2971 20.8412L56.1404 20.0651C55.8827 19.453 55.5214 18.9149 55.0535 18.4637L53.6652 19.9034ZM54.3009 20.85C54.4528 21.2012 54.5312 21.5799 54.5312 21.9961H56.5312C56.5312 21.3185 56.4014 20.6685 56.1366 20.0562L54.3009 20.85ZM54.5312 21.9961V25.6094H56.5312V21.9961H54.5312ZM55.5312 24.6094H51.5273V26.6094H55.5312V24.6094ZM52.5273 25.6094V21.9961H50.5273V25.6094H52.5273ZM51.5273 20.9961H36.332V22.9961H51.5273V20.9961ZM35.332 21.9961V41.9961H37.332V21.9961H35.332ZM36.332 42.9961H51.5273V40.9961H36.332V42.9961ZM52.5273 41.9961V38.4023H50.5273V41.9961H52.5273ZM51.5273 39.4023H55.5312V37.4023H51.5273V39.4023ZM54.5312 38.4023V41.9961H56.5312V38.4023H54.5312ZM54.5312 41.9961C54.5312 42.4122 54.4527 42.8009 54.2971 43.1705L56.1404 43.9467C56.4014 43.3267 56.5312 42.6737 56.5312 41.9961H54.5312ZM54.3009 43.1617C54.1417 43.5298 53.926 43.8472 53.6523 44.121L55.0665 45.5352C55.5219 45.0798 55.8791 44.5509 56.1366 43.9555L54.3009 43.1617ZM53.6523 44.121C53.3829 44.3904 53.0628 44.6056 52.6823 44.7659L53.4584 46.6091C54.0674 46.3527 54.6067 45.9951 55.0665 45.5352L53.6523 44.121ZM52.6734 44.7696C52.3222 44.9215 51.9435 45 51.5273 45V47C52.2049 47 52.8549 46.8701 53.4672 46.6054L52.6734 44.7696ZM51.5273 45H36.332V47H51.5273V45ZM36.332 45C35.9159 45 35.5272 44.9215 35.1576 44.7659L34.3815 46.6091C35.0014 46.8702 35.6544 47 36.332 47V45ZM35.1664 44.7696C34.7983 44.6104 34.4809 44.3948 34.2071 44.121L32.7929 45.5352C33.2483 45.9906 33.7772 46.3479 34.3726 46.6054L35.1664 44.7696ZM34.2071 44.121C33.9333 43.8472 33.7177 43.5298 33.5585 43.1617L31.7228 43.9555C31.9802 44.5509 32.3375 45.0798 32.7929 45.5352L34.2071 44.121ZM33.5623 43.1705C33.4066 42.8009 33.3281 42.4122 33.3281 41.9961H31.3281C31.3281 42.6737 31.458 43.3267 31.719 43.9467L33.5623 43.1705ZM33.3281 41.9961V21.9961H31.3281V41.9961H33.3281ZM4.59375 89H3.59375V90H4.59375V89ZM4.59375 60.9922V59.9922H3.59375V60.9922H4.59375ZM8.59766 78.6094V77.6094H7.59766V78.6094H8.59766ZM8.59766 89V90H9.59766V89H8.59766ZM8.59766 74.6055H7.59766V75.6055H8.59766V74.6055ZM8.59766 64.9961V63.9961H7.59766V64.9961H8.59766ZM5.59375 89V60.9922H3.59375V89H5.59375ZM4.59375 61.9922H19.9258V59.9922H4.59375V61.9922ZM19.9258 61.9922C22.0365 61.9922 23.4361 62.5206 24.3153 63.4024C25.1951 64.2847 25.7227 65.6899 25.7227 67.8086H27.7227C27.7227 65.383 27.1174 63.38 25.7316 61.9902C24.3452 60.5998 22.3463 59.9922 19.9258 59.9922V61.9922ZM25.7227 67.8086V71.793H27.7227V67.8086H25.7227ZM25.7227 71.793C25.7227 73.9117 25.1951 75.3169 24.3153 76.1992C23.4361 77.0809 22.0365 77.6094 19.9258 77.6094V79.6094C22.3463 79.6094 24.3452 79.0017 25.7316 77.6114C27.1174 76.2215 27.7227 74.2185 27.7227 71.793H25.7227ZM19.9258 77.6094H8.59766V79.6094H19.9258V77.6094ZM7.59766 78.6094V89H9.59766V78.6094H7.59766ZM8.59766 88H4.59375V90H8.59766V88ZM8.59766 75.6055H19.7109V73.6055H8.59766V75.6055ZM19.7109 75.6055C20.8885 75.6055 21.9795 75.3527 22.7227 74.6095L21.3085 73.1952C21.1142 73.3895 20.6688 73.6055 19.7109 73.6055V75.6055ZM22.7227 74.6095C23.4659 73.8662 23.7188 72.7752 23.7188 71.5977H21.7188C21.7188 72.5556 21.5028 73.0009 21.3085 73.1952L22.7227 74.6095ZM23.7188 71.5977V68.0039H21.7188V71.5977H23.7188ZM23.7188 68.0039C23.7188 66.8264 23.4659 65.7353 22.7227 64.9921L21.3085 66.4063C21.5028 66.6006 21.7188 67.046 21.7188 68.0039H23.7188ZM22.7227 64.9921C21.9795 64.2489 20.8885 63.9961 19.7109 63.9961V65.9961C20.6688 65.9961 21.1142 66.212 21.3085 66.4063L22.7227 64.9921ZM19.7109 63.9961H8.59766V65.9961H19.7109V63.9961ZM7.59766 64.9961V74.6055H9.59766V64.9961H7.59766ZM36.332 60.9922H37.332V59.9922H36.332V60.9922ZM36.332 84.9961H35.332V85.9961H36.332V84.9961ZM50.7266 84.9961H51.7266V83.9961H50.7266V84.9961ZM50.7266 89V90H51.7266V89H50.7266ZM32.3281 89H31.3281V90H32.3281V89ZM32.3281 60.9922V59.9922H31.3281V60.9922H32.3281ZM35.332 60.9922V84.9961H37.332V60.9922H35.332ZM36.332 85.9961H50.7266V83.9961H36.332V85.9961ZM49.7266 84.9961V89H51.7266V84.9961H49.7266ZM50.7266 88H32.3281V90H50.7266V88ZM33.3281 89V60.9922H31.3281V89H33.3281ZM32.3281 61.9922H36.332V59.9922H32.3281V61.9922ZM67.9336 60.9922L68.8666 60.6324L68.6197 59.9922H67.9336V60.9922ZM78.7344 89V90H80.1918L79.6674 88.6402L78.7344 89ZM74.7305 89L73.7972 89.3592L74.0438 90H74.7305V89ZM72.25 82.5547L73.1833 82.1955L72.9367 81.5547H72.25V82.5547ZM59.6133 82.5547V81.5547H58.9266L58.68 82.1955L59.6133 82.5547ZM57.1328 89V90H57.8195L58.0661 89.3592L57.1328 89ZM53.1289 89L52.1959 88.6402L51.6715 90H53.1289V89ZM63.9297 60.9922V59.9922H63.2435L62.9967 60.6324L63.9297 60.9922ZM61.1367 78.5508L60.2048 78.188L59.6744 79.5508H61.1367V78.5508ZM70.707 78.5508V79.5508H72.165L71.6399 78.1906L70.707 78.5508ZM65.9414 66.207L66.8743 65.8469L65.9452 63.4404L65.0095 65.8443L65.9414 66.207ZM67.0006 61.352L77.8013 89.3598L79.6674 88.6402L68.8666 60.6324L67.0006 61.352ZM78.7344 88H74.7305V90H78.7344V88ZM75.6637 88.6408L73.1833 82.1955L71.3167 82.9139L73.7972 89.3592L75.6637 88.6408ZM72.25 81.5547H59.6133V83.5547H72.25V81.5547ZM58.68 82.1955L56.1995 88.6408L58.0661 89.3592L60.5466 82.9139L58.68 82.1955ZM57.1328 88H53.1289V90H57.1328V88ZM54.0619 89.3598L64.8627 61.352L62.9967 60.6324L52.1959 88.6402L54.0619 89.3598ZM63.9297 61.9922H67.9336V59.9922H63.9297V61.9922ZM61.1367 79.5508H70.707V77.5508H61.1367V79.5508ZM71.6399 78.1906L66.8743 65.8469L65.0085 66.5672L69.7741 78.9109L71.6399 78.1906ZM65.0095 65.8443L60.2048 78.188L62.0686 78.9135L66.8733 66.5698L65.0095 65.8443ZM87.543 89V90H88.543V89H87.543ZM83.5391 89H82.5391V90H83.5391V89ZM83.5391 60.9922V59.9922H82.5391V60.9922H83.5391ZM87.543 60.9922L88.3333 60.3795L88.0331 59.9922H87.543V60.9922ZM104.379 82.7109L103.589 83.3236L105.379 85.6332V82.7109H104.379ZM104.379 60.9922V59.9922H103.379V60.9922H104.379ZM108.383 60.9922H109.383V59.9922H108.383V60.9922ZM108.383 89V90H109.383V89H108.383ZM104.379 89L103.589 89.6127L103.889 90H104.379V89ZM87.543 67.2812L88.3333 66.6686L86.543 64.359V67.2812H87.543ZM87.543 88H83.5391V90H87.543V88ZM84.5391 89V60.9922H82.5391V89H84.5391ZM83.5391 61.9922H87.543V59.9922H83.5391V61.9922ZM86.7526 61.6048L103.589 83.3236L105.169 82.0983L88.3333 60.3795L86.7526 61.6048ZM105.379 82.7109V60.9922H103.379V82.7109H105.379ZM104.379 61.9922H108.383V59.9922H104.379V61.9922ZM107.383 60.9922V89H109.383V60.9922H107.383ZM108.383 88H104.379V90H108.383V88ZM105.169 88.3873L88.3333 66.6686L86.7526 67.8939L103.589 89.6127L105.169 88.3873ZM86.543 67.2812V89H88.543V67.2812H86.543ZM115.57 60.9922V59.9922H114.57V60.9922H115.57ZM135.98 60.9922H136.98V59.9922H135.98V60.9922ZM135.98 64.9961V65.9961H136.98V64.9961H135.98ZM119.574 64.9961V63.9961H118.574V64.9961H119.574ZM119.574 73.0039H118.574V74.0039H119.574V73.0039ZM133.578 73.0039H134.578V72.0039H133.578V73.0039ZM133.578 77.0078V78.0078H134.578V77.0078H133.578ZM119.574 77.0078V76.0078H118.574V77.0078H119.574ZM119.574 84.9961H118.574V85.9961H119.574V84.9961ZM135.98 84.9961H136.98V83.9961H135.98V84.9961ZM135.98 89V90H136.98V89H135.98ZM115.57 89H114.57V90H115.57V89ZM115.57 61.9922H135.98V59.9922H115.57V61.9922ZM134.98 60.9922V64.9961H136.98V60.9922H134.98ZM135.98 63.9961H119.574V65.9961H135.98V63.9961ZM118.574 64.9961V73.0039H120.574V64.9961H118.574ZM119.574 74.0039H133.578V72.0039H119.574V74.0039ZM132.578 73.0039V77.0078H134.578V73.0039H132.578ZM133.578 76.0078H119.574V78.0078H133.578V76.0078ZM118.574 77.0078V84.9961H120.574V77.0078H118.574ZM119.574 85.9961H135.98V83.9961H119.574V85.9961ZM134.98 84.9961V89H136.98V84.9961H134.98ZM135.98 88H115.57V90H135.98V88ZM116.57 89V60.9922H114.57V89H116.57ZM139.574 60.9922V59.9922H138.574V60.9922H139.574ZM161.977 60.9922H162.977V59.9922H161.977V60.9922ZM161.977 64.9961V65.9961H162.977V64.9961H161.977ZM152.777 64.9961V63.9961H151.777V64.9961H152.777ZM152.777 89V90H153.777V89H152.777ZM148.773 89H147.773V90H148.773V89ZM148.773 64.9961H149.773V63.9961H148.773V64.9961ZM139.574 64.9961H138.574V65.9961H139.574V64.9961ZM139.574 61.9922H161.977V59.9922H139.574V61.9922ZM160.977 60.9922V64.9961H162.977V60.9922H160.977ZM161.977 63.9961H152.777V65.9961H161.977V63.9961ZM151.777 64.9961V89H153.777V64.9961H151.777ZM152.777 88H148.773V90H152.777V88ZM149.773 89V64.9961H147.773V89H149.773ZM148.773 63.9961H139.574V65.9961H148.773V63.9961ZM140.574 64.9961V60.9922H138.574V64.9961H140.574Z" fill="url(#paint7_linear_82_639)"/>
</g>
<defs>
<filter id="filter0_f_82_639" x="66" y="0" width="103" height="60.0356" filterUnits="userSpaceOnUse" color-interpolation-filters="sRGB">
<feFlood flood-opacity="0" result="BackgroundImageFix"/>
<feBlend mode="normal" in="SourceGraphic" in2="BackgroundImageFix" result="shape"/>
<feGaussianBlur stdDeviation="2" result="effect1_foregroundBlur_82_639"/>
</filter>
<filter id="filter1_d_82_639" x="68.6124" y="4" width="97.7752" height="54.8109" filterUnits="userSpaceOnUse" color-interpolation-filters="sRGB">
<feFlood flood-opacity="0" result="BackgroundImageFix"/>
<feColorMatrix in="SourceAlpha" type="matrix" values="0 0 0 0 0 0 0 0 0 0 0 0 0 0 0 0 0 0 127 0" result="hardAlpha"/>
<feOffset dy="1.38762"/>
<feGaussianBlur stdDeviation="0.693808"/>
<feComposite in2="hardAlpha" operator="out"/>
<feColorMatrix type="matrix" values="0 0 0 0 0 0 0 0 0 0 0 0 0 0 0 0 0 0 0.25 0"/>
<feBlend mode="normal" in2="BackgroundImageFix" result="effect1_dropShadow_82_639"/>
<feBlend mode="normal" in="SourceGraphic" in2="effect1_dropShadow_82_639" result="shape"/>
</filter>
<filter id="filter2_d_82_639" x="68.6124" y="4" width="97.7752" height="54.8109" filterUnits="userSpaceOnUse" color-interpolation-filters="sRGB">
<feFlood flood-opacity="0" result="BackgroundImageFix"/>
<feColorMatrix in="SourceAlpha" type="matrix" values="0 0 0 0 0 0 0 0 0 0 0 0 0 0 0 0 0 0 127 0" result="hardAlpha"/>
<feOffset dy="1.38762"/>
<feGaussianBlur stdDeviation="0.693808"/>
<feComposite in2="hardAlpha" operator="out"/>
<feColorMatrix type="matrix" values="0 0 0 0 0 0 0 0 0 0 0 0 0 0 0 0 0 0 0.25 0"/>
<feBlend mode="normal" in2="BackgroundImageFix" result="effect1_dropShadow_82_639"/>
<feBlend mode="normal" in="SourceGraphic" in2="effect1_dropShadow_82_639" result="shape"/>
</filter>
<filter id="filter3_f_82_639" x="0.59375" y="13.9922" width="165.383" height="79.0078" filterUnits="userSpaceOnUse" color-interpolation-filters="sRGB">
<feFlood flood-opacity="0" result="BackgroundImageFix"/>
<feBlend mode="normal" in="SourceGraphic" in2="BackgroundImageFix" result="shape"/>
<feGaussianBlur stdDeviation="2" result="effect1_foregroundBlur_82_639"/>
</filter>
<linearGradient id="paint0_linear_82_639" x1="116.832" y1="55.1683" x2="116.832" y2="5.21416" gradientUnits="userSpaceOnUse">
<stop stop-color="#E81CFF"/>
<stop offset="1" stop-color="#40C9FF"/>
</linearGradient>
<linearGradient id="paint1_linear_82_639" x1="116.832" y1="4" x2="116.832" y2="56.0356" gradientUnits="userSpaceOnUse">
<stop stop-color="#40C9FF"/>
<stop offset="1" stop-color="#E81CFF"/>
</linearGradient>
<linearGradient id="paint2_linear_82_639" x1="117.5" y1="6.62207" x2="117.5" y2="54.3016" gradientUnits="userSpaceOnUse">
<stop stop-color="#40C9FF"/>
<stop offset="1" stop-color="#E81CFF"/>
</linearGradient>
<linearGradient id="paint3_linear_82_639" x1="116.832" y1="55.1683" x2="116.832" y2="5.21416" gradientUnits="userSpaceOnUse">
<stop stop-color="#E81CFF"/>
<stop offset="1" stop-color="#40C9FF"/>
</linearGradient>
<linearGradient id="paint4_linear_82_639" x1="116.832" y1="4" x2="116.832" y2="56.0356" gradientUnits="userSpaceOnUse">
<stop stop-color="#40C9FF"/>
<stop offset="1" stop-color="#E81CFF"/>
</linearGradient>
<linearGradient id="paint5_linear_82_639" x1="117.5" y1="6.62207" x2="117.5" y2="54.3016" gradientUnits="userSpaceOnUse">
<stop stop-color="#40C9FF"/>
<stop offset="1" stop-color="#E81CFF"/>
</linearGradient>
<linearGradient id="paint6_linear_82_639" x1="164" y1="16" x2="-5.22027" y2="31.932" gradientUnits="userSpaceOnUse">
<stop stop-color="#40C9FF"/>
<stop offset="1" stop-color="#E81CFF"/>
</linearGradient>
<linearGradient id="paint7_linear_82_639" x1="164" y1="16" x2="-5.22027" y2="31.932" gradientUnits="userSpaceOnUse">
<stop stop-color="#40C9FF"/>
<stop offset="1" stop-color="#E81CFF"/>
</linearGradient>
</defs>
</svg>
