<svg width="30" height="31" viewBox="0 0 30 31" fill="none" xmlns="http://www.w3.org/2000/svg">
<path d="M0 8.049V11.3332H4.69L0 8.049ZM3.88667 26.3332H10.8333V21.469L3.88667 26.3332ZM19.1667 21.4698V26.3332H26.1125L19.1667 21.4698ZM0 19.6665V22.9507L4.69167 19.6665H0ZM26.1142 4.6665H19.1667V9.53067L26.1142 4.6665ZM30 22.9515V19.6665H25.3075L30 22.9515ZM30 11.3332V8.049L25.3092 11.3332H30ZM10.8333 4.6665H3.88667L10.8333 9.53067V4.6665Z" fill="#00247D"/>
<path d="M20.95 19.6669L29.0434 25.3344C29.4386 24.9272 29.7227 24.4253 29.8684 23.8769L23.8559 19.6669H20.95ZM10.8334 19.6669H9.04919L0.956693 25.3335C1.39086 25.7752 1.94753 26.091 2.57169 26.2377L10.8334 20.4527V19.6669ZM19.1667 11.3335H20.9509L29.0434 5.66686C28.6017 5.21876 28.042 4.90522 27.4292 4.7627L19.1667 10.5477V11.3335ZM9.04919 11.3335L0.956693 5.66686C0.561654 6.07434 0.277371 6.57607 0.130859 7.12436L6.14336 11.3335H9.04919Z" fill="#CF1B2B"/>
<path d="M30 17.9998H17.5V26.3332H19.1667V21.4698L26.1125 26.3332H26.6667C27.1094 26.3332 27.5477 26.2449 27.9558 26.0733C28.3639 25.9017 28.7337 25.6504 29.0433 25.334L20.95 19.6665H23.8558L29.8683 23.8765C29.9458 23.5957 30 23.3048 30 22.9998V22.9515L25.3075 19.6665H30V17.9998ZM0 17.9998V19.6665H4.69167L0 22.9507V22.9998C0 23.909 0.365833 24.7315 0.956667 25.3332L9.04917 19.6665H10.8333V20.4523L2.57167 26.2365C2.81667 26.2948 3.07 26.3332 3.33333 26.3332H3.88667L10.8333 21.469V26.3332H12.5V17.9998H0ZM30 7.99984C30.0005 7.12649 29.6568 6.28813 29.0433 5.6665L20.9508 11.3332H19.1667V10.5473L27.4292 4.76234C27.1795 4.70111 26.9237 4.66895 26.6667 4.6665H26.1142L19.1667 9.53067V4.6665H17.5V12.9998H30V11.3332H25.3092L30 8.049V7.99984ZM10.8333 4.6665V9.53067L3.88667 4.6665H3.33333C2.89052 4.66631 2.45214 4.75468 2.04398 4.92642C1.63582 5.09815 1.26614 5.34978 0.956667 5.6665L9.04917 11.3332H6.14333L0.130833 7.124C0.0481502 7.40876 0.00414451 7.70335 0 7.99984L0 8.049L4.69 11.3332H0V12.9998H12.5V4.6665H10.8333Z" fill="#EEEEEE"/>
<path d="M17.5 12.9998V4.6665H12.5V12.9998H0V17.9998H12.5V26.3332H17.5V17.9998H30V12.9998H17.5Z" fill="#CF1B2B"/>
</svg>
