<svg width="166" height="94" viewBox="0 0 166 94" fill="none" xmlns="http://www.w3.org/2000/svg">
<mask id="mask0_82_769" style="mask-type:alpha" maskUnits="userSpaceOnUse" x="91" y="4" width="49" height="45">
<path d="M93.4567 34.6902H101.436" stroke="black" stroke-width="0.693808"/>
<circle cx="106.986" cy="30.8746" r="0.520356" stroke="black" stroke-width="0.693808"/>
<circle cx="120.515" cy="29.4866" r="0.520356" stroke="black" stroke-width="0.693808"/>
<circle cx="129.188" cy="25.3238" r="0.520356" stroke="black" stroke-width="0.693808"/>
<circle cx="129.188" cy="19.7735" r="0.520356" stroke="black" stroke-width="0.693808"/>
<circle cx="129.188" cy="19.7735" r="0.520356" stroke="black" stroke-width="0.693808"/>
<circle cx="134.045" cy="24.6302" r="0.520356" stroke="black" stroke-width="0.693808"/>
<path d="M134.565 24.6301H139.942" stroke="black" stroke-width="0.693808"/>
<path d="M129.188 20.2939V24.8037" stroke="black" stroke-width="0.693808"/>
<path d="M120.689 24.4568V22.5488H122.423V24.4568H120.689Z" stroke="black" stroke-width="0.693808"/>
<circle cx="113.924" cy="29.4866" r="0.520356" stroke="black" stroke-width="0.693808"/>
<circle cx="123.984" cy="18.0391" r="0.520356" stroke="black" stroke-width="0.693808"/>
<circle cx="123.984" cy="12.4884" r="0.520356" stroke="black" stroke-width="0.693808"/>
<path d="M123.984 13.0088V17.5185" stroke="black" stroke-width="0.693808"/>
<circle cx="120.168" cy="15.2637" r="0.520356" stroke="black" stroke-width="0.693808"/>
<circle cx="120.168" cy="8.67244" r="0.520356" stroke="black" stroke-width="0.693808"/>
<path d="M118.607 31.9151C118.607 32.2025 118.374 32.4355 118.087 32.4355C117.8 32.4355 117.567 32.2025 117.567 31.9151C117.567 31.6277 117.8 31.3948 118.087 31.3948C118.374 31.3948 118.607 31.6277 118.607 31.9151Z" stroke="black" stroke-width="0.693808"/>
<circle cx="122.597" cy="31.9151" r="0.520356" stroke="black" stroke-width="0.693808"/>
<circle cx="128.494" cy="39.2" r="0.520356" stroke="black" stroke-width="0.693808"/>
<circle cx="128.494" cy="39.2" r="0.520356" stroke="black" stroke-width="0.693808"/>
<path d="M129.014 39.2H135.731" stroke="black" stroke-width="0.693808"/>
<circle cx="108.027" cy="44.7506" r="0.520356" stroke="black" stroke-width="0.693808"/>
<circle cx="102.129" cy="34.6903" r="0.520356" stroke="black" stroke-width="0.693808"/>
<circle cx="117.046" cy="44.7506" r="0.520356" stroke="black" stroke-width="0.693808"/>
<circle cx="121.903" cy="40.9346" r="0.520356" stroke="black" stroke-width="0.693808"/>
<circle cx="121.903" cy="44.7506" r="0.520356" stroke="black" stroke-width="0.693808"/>
<path d="M92.9363 32.9558H111.149V27.2319H124.851M95.7116 39.2001H105.598V40.2408H110.975M94.324 36.9452H110.628V38.5063H116.179V32.9558" stroke="black" stroke-width="0.693808"/>
<path d="M114.098 35.9044H112.536V34.5168H114.098V35.9044Z" stroke="black" stroke-width="0.693808"/>
<path d="M108.547 44.7505H116.526" stroke="black" stroke-width="0.693808"/>
<path d="M132.83 43.363H128.147V44.4037H124.852V47.6993" stroke="black" stroke-width="0.693808"/>
<path d="M114.444 29.4868H119.821M118.607 31.9151H122.076" stroke="black" stroke-width="0.693808"/>
<path d="M128.321 4.50977H114.791" stroke="black" stroke-width="0.693808"/>
<path d="M105.078 48.046H125.198M108.758 41.9752H119.128V39.2L124.852 39.2V41.9752" stroke="black" stroke-width="0.693808"/>
<path d="M121.903 41.2815V44.2302" stroke="black" stroke-width="0.693808"/>
<path d="M120.168 9.19287C120.168 10.4417 120.168 13.4135 120.168 14.7433" stroke="black" stroke-width="0.693808"/>
<path d="M127.8 10.7541H131.963V13.7028H127.8V10.7541Z" stroke="black" stroke-width="0.693808"/>
<path d="M129.014 15.9576H134.912V13.009H136.646M131.79 7.4585H122.423V10.0603" stroke="black" stroke-width="0.693808"/>
<path d="M139.075 33.823H132.83V36.7717H121.556" stroke="black" stroke-width="0.693808"/>
<path d="M126.76 41.4551H133.871" stroke="black" stroke-width="0.693808"/>
<path d="M137.687 36.5983H134.912V35.2107H137.687V36.5983Z" stroke="black" stroke-width="0.693808"/>
<path d="M126.586 22.8958V29.14H133.698" stroke="black" stroke-width="0.693808"/>
<path d="M124.852 30.8745H126.239H132.137" stroke="black" stroke-width="0.693808"/>
<path d="M97.4462 41.2815H101.609" stroke="black" stroke-width="0.693808"/>
<path d="M118.434 34.6902H123.291" stroke="black" stroke-width="0.693808"/>
<path d="M139.248 31.7417H135.085M126.239 34.6904H130.922" stroke="black" stroke-width="0.693808"/>
<path d="M130.922 27.0586H139.075" stroke="black" stroke-width="0.693808"/>
<path d="M92.5895 30.8745H106.466" stroke="black" stroke-width="0.693808"/>
<path d="M91.8958 27.4053H107.506V24.8036H117.74M138.728 17.8655H126.413V20.4673H121.729V18.9062H118.434M139.768 22.2018H132.31M139.768 19.9469H135.606" stroke="black" stroke-width="0.693808"/>
</mask>
<g mask="url(#mask0_82_769)">
<path fill-rule="evenodd" clip-rule="evenodd" d="M115.832 52.0356C130.201 52.0356 141.85 40.387 141.85 26.0178C141.85 11.6486 130.201 0 115.832 0C101.463 0 89.8143 11.6486 89.8143 26.0178C89.8143 40.387 101.463 52.0356 115.832 52.0356Z" fill="black"/>
</g>
<g filter="url(#filter0_d_82_769)">
<circle cx="115.832" cy="26.0178" r="24.8036" stroke="black" stroke-width="2.42833"/>
<path fill-rule="evenodd" clip-rule="evenodd" d="M161.531 6.23247C161.553 6.28315 161.643 6.51728 161.452 7.12303C161.255 7.74776 160.807 8.59357 159.998 9.65446C158.383 11.7737 155.645 14.3422 151.887 17.1862C144.404 22.85 133.308 29.2828 120.377 35.0918C107.446 40.9008 95.2674 44.9238 86.0629 46.7569C81.441 47.6774 77.7027 48.018 75.0454 47.8184C73.7151 47.7184 72.7853 47.4915 72.1873 47.2241C71.6074 46.9648 71.4921 46.742 71.4693 46.6913C71.4466 46.6407 71.3566 46.4065 71.5479 45.8008C71.7451 45.176 72.1931 44.3302 73.0018 43.2693C74.6174 41.1501 77.3549 38.5816 81.1126 35.7376C84.1949 33.4049 87.8899 30.9417 92.0735 28.4454L91.7268 27.2318V26.0176V25.8284C76.6186 34.7146 67.316 43.3718 69.2542 47.6864C71.945 53.6759 95.2788 49.0289 121.372 37.3069C147.465 25.5849 166.436 11.2269 163.746 5.23738C161.784 0.871096 148.852 2.15734 131.879 7.71631L132.835 8.67243L133.679 9.68568C138.526 8.13378 143.003 6.95034 146.937 6.16689C151.559 5.24642 155.297 4.90576 157.955 5.10545C159.285 5.20541 160.215 5.43229 160.813 5.69973C161.393 5.95904 161.508 6.18179 161.531 6.23247Z" fill="black"/>
</g>
<path d="M3.59375 42H2.59375V43H3.59375V42ZM3.59375 13.9922V12.9922H2.59375V13.9922H3.59375ZM7.59766 31.6094V30.6094H6.59766V31.6094H7.59766ZM7.59766 42V43H8.59766V42H7.59766ZM7.59766 27.6055H6.59766V28.6055H7.59766V27.6055ZM7.59766 17.9961V16.9961H6.59766V17.9961H7.59766ZM4.59375 42V13.9922H2.59375V42H4.59375ZM3.59375 14.9922H18.9258V12.9922H3.59375V14.9922ZM18.9258 14.9922C21.0365 14.9922 22.4361 15.5206 23.3153 16.4024C24.1951 17.2847 24.7227 18.6899 24.7227 20.8086H26.7227C26.7227 18.383 26.1174 16.38 24.7316 14.9902C23.3452 13.5998 21.3463 12.9922 18.9258 12.9922V14.9922ZM24.7227 20.8086V24.793H26.7227V20.8086H24.7227ZM24.7227 24.793C24.7227 26.9117 24.1951 28.3169 23.3153 29.1992C22.4361 30.0809 21.0365 30.6094 18.9258 30.6094V32.6094C21.3463 32.6094 23.3452 32.0017 24.7316 30.6114C26.1174 29.2215 26.7227 27.2185 26.7227 24.793H24.7227ZM18.9258 30.6094H7.59766V32.6094H18.9258V30.6094ZM6.59766 31.6094V42H8.59766V31.6094H6.59766ZM7.59766 41H3.59375V43H7.59766V41ZM7.59766 28.6055H18.7109V26.6055H7.59766V28.6055ZM18.7109 28.6055C19.8885 28.6055 20.9795 28.3527 21.7227 27.6095L20.3085 26.1952C20.1142 26.3895 19.6688 26.6055 18.7109 26.6055V28.6055ZM21.7227 27.6095C22.4659 26.8662 22.7188 25.7752 22.7188 24.5977H20.7188C20.7188 25.5556 20.5028 26.001 20.3085 26.1952L21.7227 27.6095ZM22.7188 24.5977V21.0039H20.7188V24.5977H22.7188ZM22.7188 21.0039C22.7188 19.8264 22.4659 18.7353 21.7227 17.9921L20.3085 19.4063C20.5028 19.6006 20.7188 20.046 20.7188 21.0039H22.7188ZM21.7227 17.9921C20.9795 17.2489 19.8885 16.9961 18.7109 16.9961V18.9961C19.6688 18.9961 20.1142 19.212 20.3085 19.4063L21.7227 17.9921ZM18.7109 16.9961H7.59766V18.9961H18.7109V16.9961ZM6.59766 17.9961V27.6055H8.59766V17.9961H6.59766ZM31.6406 16.4531L32.5585 16.8501L32.5623 16.8412L31.6406 16.4531ZM32.5 15.1836L33.1941 15.9034L33.2007 15.8971L33.2071 15.8907L32.5 15.1836ZM33.7695 14.3242L34.1665 15.2421L34.1779 15.237L33.7695 14.3242ZM52.0703 14.3242L51.6528 15.2329L51.6674 15.2396L51.6823 15.2459L52.0703 14.3242ZM53.3594 15.1836L52.6523 15.8907L52.6587 15.8971L52.6652 15.9034L53.3594 15.1836ZM54.2188 16.4531L53.2971 16.8412L53.3009 16.85L54.2188 16.4531ZM54.5312 21.6094V22.6094H55.5312V21.6094H54.5312ZM50.5273 21.6094H49.5273V22.6094H50.5273V21.6094ZM50.5273 17.9961H51.5273V16.9961H50.5273V17.9961ZM35.332 17.9961V16.9961H34.332V17.9961H35.332ZM35.332 37.9961H34.332V38.9961H35.332V37.9961ZM50.5273 37.9961V38.9961H51.5273V37.9961H50.5273ZM50.5273 34.4023V33.4023H49.5273V34.4023H50.5273ZM54.5312 34.4023H55.5312V33.4023H54.5312V34.4023ZM54.2188 39.5586L55.1367 39.9555L55.1404 39.9467L54.2188 39.5586ZM52.0703 41.6875L51.6822 40.7658L51.6734 40.7696L52.0703 41.6875ZM33.7695 41.6875L33.3726 42.6054L33.3815 42.6091L33.7695 41.6875ZM32.5 40.8281L31.7929 41.5352L32.5 40.8281ZM31.6406 39.5586L30.7189 39.9467L30.7228 39.9555L31.6406 39.5586ZM32.3281 17.9961C32.3281 17.5799 32.4066 17.2012 32.5585 16.85L30.7228 16.0562C30.458 16.6685 30.3281 17.3185 30.3281 17.9961H32.3281ZM32.5623 16.8412C32.7212 16.4636 32.9329 16.1554 33.1941 15.9034L31.8059 14.4637C31.338 14.9149 30.9767 15.453 30.719 16.0651L32.5623 16.8412ZM33.2071 15.8907C33.4809 15.6169 33.7983 15.4013 34.1664 15.2421L33.3726 13.4064C32.7772 13.6638 32.2483 14.0211 31.7929 14.4765L33.2071 15.8907ZM34.1779 15.237C34.543 15.0737 34.9246 14.9922 35.332 14.9922V12.9922C34.6457 12.9922 33.9856 13.132 33.3612 13.4114L34.1779 15.237ZM35.332 14.9922H50.5273V12.9922H35.332V14.9922ZM50.5273 14.9922C50.9348 14.9922 51.3062 15.0736 51.6528 15.2329L52.4878 13.4155C51.8709 13.1321 51.2137 12.9922 50.5273 12.9922V14.9922ZM51.6823 15.2459C52.0628 15.4061 52.3829 15.6214 52.6523 15.8907L54.0665 14.4765C53.6067 14.0167 53.0674 13.659 52.4584 13.4026L51.6823 15.2459ZM52.6652 15.9034C52.9265 16.1554 53.1381 16.4636 53.2971 16.8412L55.1404 16.0651C54.8827 15.453 54.5214 14.9149 54.0535 14.4637L52.6652 15.9034ZM53.3009 16.85C53.4528 17.2012 53.5312 17.5799 53.5312 17.9961H55.5312C55.5312 17.3185 55.4014 16.6685 55.1366 16.0562L53.3009 16.85ZM53.5312 17.9961V21.6094H55.5312V17.9961H53.5312ZM54.5312 20.6094H50.5273V22.6094H54.5312V20.6094ZM51.5273 21.6094V17.9961H49.5273V21.6094H51.5273ZM50.5273 16.9961H35.332V18.9961H50.5273V16.9961ZM34.332 17.9961V37.9961H36.332V17.9961H34.332ZM35.332 38.9961H50.5273V36.9961H35.332V38.9961ZM51.5273 37.9961V34.4023H49.5273V37.9961H51.5273ZM50.5273 35.4023H54.5312V33.4023H50.5273V35.4023ZM53.5312 34.4023V37.9961H55.5312V34.4023H53.5312ZM53.5312 37.9961C53.5312 38.4122 53.4527 38.8009 53.2971 39.1705L55.1404 39.9467C55.4014 39.3267 55.5312 38.6737 55.5312 37.9961H53.5312ZM53.3009 39.1617C53.1417 39.5298 52.926 39.8472 52.6523 40.121L54.0665 41.5352C54.5219 41.0798 54.8791 40.5509 55.1366 39.9555L53.3009 39.1617ZM52.6523 40.121C52.3829 40.3904 52.0628 40.6056 51.6823 40.7659L52.4584 42.6091C53.0674 42.3527 53.6067 41.9951 54.0665 41.5352L52.6523 40.121ZM51.6734 40.7696C51.3222 40.9215 50.9435 41 50.5273 41V43C51.2049 43 51.8549 42.8701 52.4672 42.6054L51.6734 40.7696ZM50.5273 41H35.332V43H50.5273V41ZM35.332 41C34.9159 41 34.5272 40.9215 34.1576 40.7659L33.3815 42.6091C34.0014 42.8702 34.6544 43 35.332 43V41ZM34.1664 40.7696C33.7983 40.6104 33.4809 40.3948 33.2071 40.121L31.7929 41.5352C32.2483 41.9906 32.7772 42.3479 33.3726 42.6054L34.1664 40.7696ZM33.2071 40.121C32.9333 39.8472 32.7177 39.5298 32.5585 39.1617L30.7228 39.9555C30.9802 40.5509 31.3375 41.0798 31.7929 41.5352L33.2071 40.121ZM32.5623 39.1705C32.4066 38.8009 32.3281 38.4122 32.3281 37.9961H30.3281C30.3281 38.6737 30.458 39.3267 30.719 39.9467L32.5623 39.1705ZM32.3281 37.9961V17.9961H30.3281V37.9961H32.3281ZM3.59375 85H2.59375V86H3.59375V85ZM3.59375 56.9922V55.9922H2.59375V56.9922H3.59375ZM7.59766 74.6094V73.6094H6.59766V74.6094H7.59766ZM7.59766 85V86H8.59766V85H7.59766ZM7.59766 70.6055H6.59766V71.6055H7.59766V70.6055ZM7.59766 60.9961V59.9961H6.59766V60.9961H7.59766ZM4.59375 85V56.9922H2.59375V85H4.59375ZM3.59375 57.9922H18.9258V55.9922H3.59375V57.9922ZM18.9258 57.9922C21.0365 57.9922 22.4361 58.5206 23.3153 59.4024C24.1951 60.2847 24.7227 61.6899 24.7227 63.8086H26.7227C26.7227 61.383 26.1174 59.38 24.7316 57.9902C23.3452 56.5998 21.3463 55.9922 18.9258 55.9922V57.9922ZM24.7227 63.8086V67.793H26.7227V63.8086H24.7227ZM24.7227 67.793C24.7227 69.9117 24.1951 71.3169 23.3153 72.1992C22.4361 73.0809 21.0365 73.6094 18.9258 73.6094V75.6094C21.3463 75.6094 23.3452 75.0017 24.7316 73.6114C26.1174 72.2215 26.7227 70.2185 26.7227 67.793H24.7227ZM18.9258 73.6094H7.59766V75.6094H18.9258V73.6094ZM6.59766 74.6094V85H8.59766V74.6094H6.59766ZM7.59766 84H3.59375V86H7.59766V84ZM7.59766 71.6055H18.7109V69.6055H7.59766V71.6055ZM18.7109 71.6055C19.8885 71.6055 20.9795 71.3527 21.7227 70.6095L20.3085 69.1952C20.1142 69.3895 19.6688 69.6055 18.7109 69.6055V71.6055ZM21.7227 70.6095C22.4659 69.8662 22.7188 68.7752 22.7188 67.5977H20.7188C20.7188 68.5556 20.5028 69.0009 20.3085 69.1952L21.7227 70.6095ZM22.7188 67.5977V64.0039H20.7188V67.5977H22.7188ZM22.7188 64.0039C22.7188 62.8264 22.4659 61.7353 21.7227 60.9921L20.3085 62.4063C20.5028 62.6006 20.7188 63.046 20.7188 64.0039H22.7188ZM21.7227 60.9921C20.9795 60.2489 19.8885 59.9961 18.7109 59.9961V61.9961C19.6688 61.9961 20.1142 62.212 20.3085 62.4063L21.7227 60.9921ZM18.7109 59.9961H7.59766V61.9961H18.7109V59.9961ZM6.59766 60.9961V70.6055H8.59766V60.9961H6.59766ZM35.332 56.9922H36.332V55.9922H35.332V56.9922ZM35.332 80.9961H34.332V81.9961H35.332V80.9961ZM49.7266 80.9961H50.7266V79.9961H49.7266V80.9961ZM49.7266 85V86H50.7266V85H49.7266ZM31.3281 85H30.3281V86H31.3281V85ZM31.3281 56.9922V55.9922H30.3281V56.9922H31.3281ZM34.332 56.9922V80.9961H36.332V56.9922H34.332ZM35.332 81.9961H49.7266V79.9961H35.332V81.9961ZM48.7266 80.9961V85H50.7266V80.9961H48.7266ZM49.7266 84H31.3281V86H49.7266V84ZM32.3281 85V56.9922H30.3281V85H32.3281ZM31.3281 57.9922H35.332V55.9922H31.3281V57.9922ZM66.9336 56.9922L67.8666 56.6324L67.6197 55.9922H66.9336V56.9922ZM77.7344 85V86H79.1918L78.6674 84.6402L77.7344 85ZM73.7305 85L72.7972 85.3592L73.0438 86H73.7305V85ZM71.25 78.5547L72.1833 78.1955L71.9367 77.5547H71.25V78.5547ZM58.6133 78.5547V77.5547H57.9266L57.68 78.1955L58.6133 78.5547ZM56.1328 85V86H56.8195L57.0661 85.3592L56.1328 85ZM52.1289 85L51.1959 84.6402L50.6715 86H52.1289V85ZM62.9297 56.9922V55.9922H62.2435L61.9967 56.6324L62.9297 56.9922ZM60.1367 74.5508L59.2048 74.188L58.6744 75.5508H60.1367V74.5508ZM69.707 74.5508V75.5508H71.165L70.6399 74.1906L69.707 74.5508ZM64.9414 62.207L65.8743 61.8469L64.9452 59.4404L64.0095 61.8443L64.9414 62.207ZM66.0006 57.352L76.8013 85.3598L78.6674 84.6402L67.8666 56.6324L66.0006 57.352ZM77.7344 84H73.7305V86H77.7344V84ZM74.6637 84.6408L72.1833 78.1955L70.3167 78.9139L72.7972 85.3592L74.6637 84.6408ZM71.25 77.5547H58.6133V79.5547H71.25V77.5547ZM57.68 78.1955L55.1995 84.6408L57.0661 85.3592L59.5466 78.9139L57.68 78.1955ZM56.1328 84H52.1289V86H56.1328V84ZM53.0619 85.3598L63.8627 57.352L61.9967 56.6324L51.1959 84.6402L53.0619 85.3598ZM62.9297 57.9922H66.9336V55.9922H62.9297V57.9922ZM60.1367 75.5508H69.707V73.5508H60.1367V75.5508ZM70.6399 74.1906L65.8743 61.8469L64.0085 62.5672L68.7741 74.9109L70.6399 74.1906ZM64.0095 61.8443L59.2048 74.188L61.0686 74.9135L65.8733 62.5698L64.0095 61.8443ZM86.543 85V86H87.543V85H86.543ZM82.5391 85H81.5391V86H82.5391V85ZM82.5391 56.9922V55.9922H81.5391V56.9922H82.5391ZM86.543 56.9922L87.3333 56.3795L87.0331 55.9922H86.543V56.9922ZM103.379 78.7109L102.589 79.3236L104.379 81.6332V78.7109H103.379ZM103.379 56.9922V55.9922H102.379V56.9922H103.379ZM107.383 56.9922H108.383V55.9922H107.383V56.9922ZM107.383 85V86H108.383V85H107.383ZM103.379 85L102.589 85.6127L102.889 86H103.379V85ZM86.543 63.2812L87.3333 62.6686L85.543 60.359V63.2812H86.543ZM86.543 84H82.5391V86H86.543V84ZM83.5391 85V56.9922H81.5391V85H83.5391ZM82.5391 57.9922H86.543V55.9922H82.5391V57.9922ZM85.7526 57.6048L102.589 79.3236L104.169 78.0983L87.3333 56.3795L85.7526 57.6048ZM104.379 78.7109V56.9922H102.379V78.7109H104.379ZM103.379 57.9922H107.383V55.9922H103.379V57.9922ZM106.383 56.9922V85H108.383V56.9922H106.383ZM107.383 84H103.379V86H107.383V84ZM104.169 84.3873L87.3333 62.6686L85.7526 63.8939L102.589 85.6127L104.169 84.3873ZM85.543 63.2812V85H87.543V63.2812H85.543ZM114.57 56.9922V55.9922H113.57V56.9922H114.57ZM134.98 56.9922H135.98V55.9922H134.98V56.9922ZM134.98 60.9961V61.9961H135.98V60.9961H134.98ZM118.574 60.9961V59.9961H117.574V60.9961H118.574ZM118.574 69.0039H117.574V70.0039H118.574V69.0039ZM132.578 69.0039H133.578V68.0039H132.578V69.0039ZM132.578 73.0078V74.0078H133.578V73.0078H132.578ZM118.574 73.0078V72.0078H117.574V73.0078H118.574ZM118.574 80.9961H117.574V81.9961H118.574V80.9961ZM134.98 80.9961H135.98V79.9961H134.98V80.9961ZM134.98 85V86H135.98V85H134.98ZM114.57 85H113.57V86H114.57V85ZM114.57 57.9922H134.98V55.9922H114.57V57.9922ZM133.98 56.9922V60.9961H135.98V56.9922H133.98ZM134.98 59.9961H118.574V61.9961H134.98V59.9961ZM117.574 60.9961V69.0039H119.574V60.9961H117.574ZM118.574 70.0039H132.578V68.0039H118.574V70.0039ZM131.578 69.0039V73.0078H133.578V69.0039H131.578ZM132.578 72.0078H118.574V74.0078H132.578V72.0078ZM117.574 73.0078V80.9961H119.574V73.0078H117.574ZM118.574 81.9961H134.98V79.9961H118.574V81.9961ZM133.98 80.9961V85H135.98V80.9961H133.98ZM134.98 84H114.57V86H134.98V84ZM115.57 85V56.9922H113.57V85H115.57ZM138.574 56.9922V55.9922H137.574V56.9922H138.574ZM160.977 56.9922H161.977V55.9922H160.977V56.9922ZM160.977 60.9961V61.9961H161.977V60.9961H160.977ZM151.777 60.9961V59.9961H150.777V60.9961H151.777ZM151.777 85V86H152.777V85H151.777ZM147.773 85H146.773V86H147.773V85ZM147.773 60.9961H148.773V59.9961H147.773V60.9961ZM138.574 60.9961H137.574V61.9961H138.574V60.9961ZM138.574 57.9922H160.977V55.9922H138.574V57.9922ZM159.977 56.9922V60.9961H161.977V56.9922H159.977ZM160.977 59.9961H151.777V61.9961H160.977V59.9961ZM150.777 60.9961V85H152.777V60.9961H150.777ZM151.777 84H147.773V86H151.777V84ZM148.773 85V60.9961H146.773V85H148.773ZM147.773 59.9961H138.574V61.9961H147.773V59.9961ZM139.574 60.9961V56.9922H137.574V60.9961H139.574Z" fill="black"/>
<defs>
<filter id="filter0_d_82_769" x="67.6124" y="0" width="97.7752" height="54.8109" filterUnits="userSpaceOnUse" color-interpolation-filters="sRGB">
<feFlood flood-opacity="0" result="BackgroundImageFix"/>
<feColorMatrix in="SourceAlpha" type="matrix" values="0 0 0 0 0 0 0 0 0 0 0 0 0 0 0 0 0 0 127 0" result="hardAlpha"/>
<feOffset dy="1.38762"/>
<feGaussianBlur stdDeviation="0.693808"/>
<feComposite in2="hardAlpha" operator="out"/>
<feColorMatrix type="matrix" values="0 0 0 0 0 0 0 0 0 0 0 0 0 0 0 0 0 0 0.25 0"/>
<feBlend mode="normal" in2="BackgroundImageFix" result="effect1_dropShadow_82_769"/>
<feBlend mode="normal" in="SourceGraphic" in2="effect1_dropShadow_82_769" result="shape"/>
</filter>
</defs>
</svg>
