<svg width="170" height="95" viewBox="0 0 170 95" fill="none" xmlns="http://www.w3.org/2000/svg">
<mask id="mask0_248_70" style="mask-type:alpha" maskUnits="userSpaceOnUse" x="87" y="6" width="51" height="45">
<path d="M89.3515 37.0593H97.6222" stroke="black" stroke-width="0.693808"/>
<path d="M103.928 33.2031C103.928 33.4874 103.689 33.7327 103.376 33.7327C103.063 33.7327 102.824 33.4874 102.824 33.2031C102.824 32.9189 103.063 32.6736 103.376 32.6736C103.689 32.6736 103.928 32.9189 103.928 33.2031Z" stroke="black" stroke-width="0.693808"/>
<path d="M117.952 31.8003C117.952 32.0846 117.713 32.3299 117.4 32.3299C117.087 32.3299 116.848 32.0846 116.848 31.8003C116.848 31.5161 117.087 31.2707 117.4 31.2707C117.713 31.2707 117.952 31.5161 117.952 31.8003Z" stroke="black" stroke-width="0.693808"/>
<path d="M126.942 27.5933C126.942 27.8775 126.703 28.1229 126.39 28.1229C126.077 28.1229 125.838 27.8775 125.838 27.5933C125.838 27.309 126.077 27.0637 126.39 27.0637C126.703 27.0637 126.942 27.309 126.942 27.5933Z" stroke="black" stroke-width="0.693808"/>
<path d="M126.942 21.9839C126.942 22.2682 126.703 22.5135 126.39 22.5135C126.077 22.5135 125.838 22.2682 125.838 21.9839C125.838 21.6997 126.077 21.4543 126.39 21.4543C126.703 21.4543 126.942 21.6997 126.942 21.9839Z" stroke="black" stroke-width="0.693808"/>
<path d="M126.942 21.9839C126.942 22.2682 126.703 22.5135 126.39 22.5135C126.077 22.5135 125.838 22.2682 125.838 21.9839C125.838 21.6997 126.077 21.4543 126.39 21.4543C126.703 21.4543 126.942 21.6997 126.942 21.9839Z" stroke="black" stroke-width="0.693808"/>
<path d="M131.976 26.8921C131.976 27.1764 131.738 27.4217 131.424 27.4217C131.111 27.4217 130.872 27.1764 130.872 26.8921C130.872 26.6079 131.111 26.3625 131.424 26.3625C131.738 26.3625 131.976 26.6079 131.976 26.8921Z" stroke="black" stroke-width="0.693808"/>
<path d="M131.964 26.8921H137.537" stroke="black" stroke-width="0.693808"/>
<path d="M126.39 22.5098V27.0675" stroke="black" stroke-width="0.693808"/>
<path d="M117.567 26.7205V24.7849H119.39V26.7205H117.567Z" stroke="black" stroke-width="0.693808"/>
<path d="M111.12 31.8003C111.12 32.0846 110.881 32.3299 110.568 32.3299C110.254 32.3299 110.016 32.0846 110.016 31.8003C110.016 31.5161 110.254 31.2707 110.568 31.2707C110.881 31.2707 111.12 31.5161 111.12 31.8003Z" stroke="black" stroke-width="0.693808"/>
<path d="M121.548 20.231C121.548 20.5152 121.309 20.7606 120.996 20.7606C120.683 20.7606 120.444 20.5152 120.444 20.231C120.444 19.9467 120.683 19.7014 120.996 19.7014C121.309 19.7014 121.548 19.9467 121.548 20.231Z" stroke="black" stroke-width="0.693808"/>
<path d="M121.548 14.6211C121.548 14.9054 121.309 15.1507 120.996 15.1507C120.683 15.1507 120.444 14.9054 120.444 14.6211C120.444 14.3369 120.683 14.0915 120.996 14.0915C121.309 14.0915 121.548 14.3369 121.548 14.6211Z" stroke="black" stroke-width="0.693808"/>
<path d="M120.996 15.1472V19.7049" stroke="black" stroke-width="0.693808"/>
<path d="M117.592 17.426C117.592 17.7103 117.354 17.9556 117.04 17.9556C116.727 17.9556 116.488 17.7103 116.488 17.426C116.488 17.1418 116.727 16.8965 117.04 16.8965C117.354 16.8965 117.592 17.1418 117.592 17.426Z" stroke="black" stroke-width="0.693808"/>
<path d="M117.592 10.7647C117.592 11.0489 117.354 11.2943 117.04 11.2943C116.727 11.2943 116.488 11.0489 116.488 10.7647C116.488 10.4804 116.727 10.2351 117.04 10.2351C117.354 10.2351 117.592 10.4804 117.592 10.7647Z" stroke="black" stroke-width="0.693808"/>
<path d="M115.435 34.2547C115.435 34.5389 115.196 34.7842 114.883 34.7842C114.57 34.7842 114.331 34.5389 114.331 34.2547C114.331 33.9704 114.57 33.7251 114.883 33.7251C115.196 33.7251 115.435 33.9704 115.435 34.2547Z" stroke="black" stroke-width="0.693808"/>
<path d="M120.11 34.2547C120.11 34.5389 119.871 34.7842 119.558 34.7842C119.244 34.7842 119.005 34.5389 119.005 34.2547C119.005 33.9704 119.244 33.7251 119.558 33.7251C119.871 33.7251 120.11 33.9704 120.11 34.2547Z" stroke="black" stroke-width="0.693808"/>
<path d="M126.223 41.617C126.223 41.9012 125.984 42.1465 125.671 42.1465C125.357 42.1465 125.119 41.9012 125.119 41.617C125.119 41.3327 125.357 41.0874 125.671 41.0874C125.984 41.0874 126.223 41.3327 126.223 41.617Z" stroke="black" stroke-width="0.693808"/>
<path d="M126.223 41.617C126.223 41.9012 125.984 42.1465 125.671 42.1465C125.357 42.1465 125.119 41.9012 125.119 41.617C125.119 41.3327 125.357 41.0874 125.671 41.0874C125.984 41.0874 126.223 41.3327 126.223 41.617Z" stroke="black" stroke-width="0.693808"/>
<path d="M126.21 41.6169H133.173" stroke="black" stroke-width="0.693808"/>
<mask id="path-22-inside-1_248_70" fill="white">
<ellipse cx="104.455" cy="47.2266" rx="0.898989" ry="0.876486"/>
</mask>
<path d="M104.313 47.2266C104.313 47.1112 104.401 47.0624 104.455 47.0624V49.1438C105.501 49.1438 106.394 48.3101 106.394 47.2266H104.313ZM104.455 47.0624C104.508 47.0624 104.596 47.1112 104.596 47.2266H102.515C102.515 48.3101 103.408 49.1438 104.455 49.1438V47.0624ZM104.596 47.2266C104.596 47.342 104.508 47.3908 104.455 47.3908V45.3094C103.408 45.3094 102.515 46.143 102.515 47.2266H104.596ZM104.455 47.3908C104.401 47.3908 104.313 47.342 104.313 47.2266H106.394C106.394 46.143 105.501 45.3094 104.455 45.3094V47.3908Z" fill="black" mask="url(#path-22-inside-1_248_70)"/>
<path d="M98.8935 37.0593C98.8935 37.3436 98.6547 37.5889 98.3414 37.5889C98.0282 37.5889 97.7893 37.3436 97.7893 37.0593C97.7893 36.7751 98.0282 36.5298 98.3414 36.5298C98.6547 36.5298 98.8935 36.7751 98.8935 37.0593Z" stroke="black" stroke-width="0.693808"/>
<mask id="path-25-inside-2_248_70" fill="white">
<ellipse cx="113.804" cy="47.2266" rx="0.898989" ry="0.876486"/>
</mask>
<path d="M113.662 47.2266C113.662 47.1112 113.751 47.0624 113.804 47.0624V49.1438C114.85 49.1438 115.744 48.3101 115.744 47.2266H113.662ZM113.804 47.0624C113.857 47.0624 113.946 47.1112 113.946 47.2266H111.864C111.864 48.3101 112.758 49.1438 113.804 49.1438V47.0624ZM113.946 47.2266C113.946 47.342 113.857 47.3908 113.804 47.3908V45.3094C112.758 45.3094 111.864 46.143 111.864 47.2266H113.946ZM113.804 47.3908C113.751 47.3908 113.662 47.342 113.662 47.2266H115.744C115.744 46.143 114.85 45.3094 113.804 45.3094V47.3908Z" fill="black" mask="url(#path-25-inside-2_248_70)"/>
<mask id="path-27-inside-3_248_70" fill="white">
<ellipse cx="118.838" cy="43.3701" rx="0.898989" ry="0.876486"/>
</mask>
<path d="M118.697 43.3701C118.697 43.2547 118.785 43.2059 118.838 43.2059V45.2873C119.885 45.2873 120.778 44.4537 120.778 43.3701H118.697ZM118.838 43.2059C118.892 43.2059 118.98 43.2547 118.98 43.3701H116.899C116.899 44.4537 117.792 45.2873 118.838 45.2873V43.2059ZM118.98 43.3701C118.98 43.4855 118.892 43.5344 118.838 43.5344V41.4529C117.792 41.4529 116.899 42.2866 116.899 43.3701H118.98ZM118.838 43.5344C118.785 43.5344 118.697 43.4855 118.697 43.3701H120.778C120.778 42.2866 119.885 41.4529 118.838 41.4529V43.5344Z" fill="black" mask="url(#path-27-inside-3_248_70)"/>
<mask id="path-29-inside-4_248_70" fill="white">
<ellipse cx="118.838" cy="47.2266" rx="0.898989" ry="0.876486"/>
</mask>
<path d="M118.697 47.2266C118.697 47.1112 118.785 47.0624 118.838 47.0624V49.1438C119.885 49.1438 120.778 48.3101 120.778 47.2266H118.697ZM118.838 47.0624C118.892 47.0624 118.98 47.1112 118.98 47.2266H116.899C116.899 48.3101 117.792 49.1438 118.838 49.1438V47.0624ZM118.98 47.2266C118.98 47.342 118.892 47.3908 118.838 47.3908V45.3094C117.792 45.3094 116.899 46.143 116.899 47.2266H118.98ZM118.838 47.3908C118.785 47.3908 118.697 47.342 118.697 47.2266H120.778C120.778 46.143 119.885 45.3094 118.838 45.3094V47.3908Z" fill="black" mask="url(#path-29-inside-4_248_70)"/>
<path d="M88.8121 35.3065H107.691V29.5217H121.895M91.6889 41.6172H101.937V42.669H107.511M90.2505 39.3384H107.151V40.916H112.905V35.3065" stroke="black" stroke-width="0.693808"/>
<path d="M110.76 38.2901H109.117V36.8804H110.76V38.2901Z" stroke="black" stroke-width="0.693808"/>
<path d="M104.994 47.2266H113.265" stroke="black" stroke-width="0.693808"/>
<path d="M130.166 45.8245H125.311V46.8762H121.895V50.2069" stroke="black" stroke-width="0.693808"/>
<path d="M111.107 31.8005H116.681M115.422 34.2547H119.018" stroke="black" stroke-width="0.693808"/>
<path d="M125.491 6.55786H111.467" stroke="black" stroke-width="0.693808"/>
<path d="M101.398 50.5571H122.255M105.212 44.4217H115.962V41.617L121.895 41.6169V44.4217" stroke="black" stroke-width="0.693808"/>
<path d="M118.838 43.7207V46.7008" stroke="black" stroke-width="0.693808"/>
<path d="M117.04 11.2908C117.04 12.5529 117.04 15.5563 117.04 16.9003" stroke="black" stroke-width="0.693808"/>
<path d="M124.939 12.8648H129.279V15.8522H124.939V12.8648Z" stroke="black" stroke-width="0.693808"/>
<path d="M126.21 18.1274H132.323V15.1474H134.121M129.087 9.53784H119.378V12.1673" stroke="black" stroke-width="0.693808"/>
<path d="M136.638 36.1829H130.166V39.1629H118.479" stroke="black" stroke-width="0.693808"/>
<path d="M123.873 43.896H131.244" stroke="black" stroke-width="0.693808"/>
<path d="M135.213 38.9913H132.31V37.5815H135.213V38.9913Z" stroke="black" stroke-width="0.693808"/>
<path d="M123.693 25.1394V31.4501H131.065" stroke="black" stroke-width="0.693808"/>
<path d="M121.895 33.2029H123.333H129.446" stroke="black" stroke-width="0.693808"/>
<path d="M93.4868 43.7207H97.802" stroke="black" stroke-width="0.693808"/>
<path d="M115.242 37.0593H120.277" stroke="black" stroke-width="0.693808"/>
<path d="M136.818 34.0793H132.503M123.333 37.0594H128.188" stroke="black" stroke-width="0.693808"/>
<path d="M128.188 29.3464H136.638" stroke="black" stroke-width="0.693808"/>
<path d="M88.4526 33.2029H102.836" stroke="black" stroke-width="0.693808"/>
<path d="M87.7334 29.6968H103.915V27.0673H114.523M136.279 20.0554H123.513V22.6849H118.659V21.1072H115.242M137.358 24.4378H129.626M137.358 22.159H133.042" stroke="black" stroke-width="0.693808"/>
</mask>
<g mask="url(#mask0_248_70)">
<path fill-rule="evenodd" clip-rule="evenodd" d="M112.545 54.5891C127.44 54.5891 139.515 42.8167 139.515 28.2946C139.515 13.7725 127.44 2 112.545 2C97.6505 2 85.5758 13.7725 85.5758 28.2946C85.5758 42.8167 97.6505 54.5891 112.545 54.5891Z" fill="black"/>
</g>
<g filter="url(#filter0_d_248_70)">
<path d="M138.301 28.2946C138.301 42.1173 126.799 53.375 112.545 53.375C98.2918 53.375 86.7899 42.1173 86.7899 28.2946C86.7899 14.4719 98.2918 3.21416 112.545 3.21416C126.799 3.21416 138.301 14.4719 138.301 28.2946Z" stroke="black" stroke-width="2.42833"/>
<path fill-rule="evenodd" clip-rule="evenodd" d="M159.988 8.26737C160.01 8.31665 160.106 8.5562 159.904 9.17827C159.697 9.81809 159.228 10.6805 158.385 11.758C156.703 13.9096 153.857 16.5119 149.958 19.3891C142.192 25.1196 130.681 31.625 117.272 37.4983C103.862 43.3717 91.2293 47.4407 81.6773 49.2954C76.8814 50.2266 72.9958 50.5727 70.2286 50.3699C68.8428 50.2684 67.8699 50.0377 67.2417 49.7638C66.6309 49.4975 66.5106 49.2688 66.4879 49.2195C66.4652 49.1702 66.3697 48.9307 66.5712 48.3086C66.7784 47.6688 67.2476 46.8064 68.0902 45.7289C69.7725 43.5773 72.6185 40.9749 76.5177 38.0978C79.7205 35.7346 83.56 33.2395 87.9069 30.7114L87.5582 29.5217V28.2946V28.1032C71.8973 37.0839 62.2543 45.8332 64.2635 50.1938C67.0527 56.247 91.2403 51.5505 118.288 39.7038C145.336 27.8571 165.001 13.3464 162.212 7.29313C160.179 2.88038 146.774 4.18033 129.179 9.79847L130.17 10.7649L131.019 11.7582C136.056 10.185 140.71 8.9854 144.798 8.19149C149.594 7.26028 153.48 6.91422 156.247 7.11696C157.633 7.21849 158.606 7.44923 159.234 7.72313C159.845 7.98942 159.965 8.21809 159.988 8.26737Z" fill="black"/>
</g>
<path d="M3.59375 42.1277H2.59375V43.1277H3.59375V42.1277ZM3.59375 14.1199V13.1199H2.59375V14.1199H3.59375ZM7.59766 31.7371V30.7371H6.59766V31.7371H7.59766ZM7.59766 42.1277V43.1277H8.59766V42.1277H7.59766ZM7.59766 27.7332H6.59766V28.7332H7.59766V27.7332ZM7.59766 18.1238V17.1238H6.59766V18.1238H7.59766ZM4.59375 42.1277V14.1199H2.59375V42.1277H4.59375ZM3.59375 15.1199H18.9258V13.1199H3.59375V15.1199ZM18.9258 15.1199C21.0365 15.1199 22.4361 15.6483 23.3153 16.5301C24.1951 17.4124 24.7227 18.8176 24.7227 20.9363H26.7227C26.7227 18.5107 26.1174 16.5077 24.7316 15.1179C23.3452 13.7275 21.3463 13.1199 18.9258 13.1199V15.1199ZM24.7227 20.9363V24.9207H26.7227V20.9363H24.7227ZM24.7227 24.9207C24.7227 27.0394 24.1951 28.4446 23.3153 29.3269C22.4361 30.2086 21.0365 30.7371 18.9258 30.7371V32.7371C21.3463 32.7371 23.3452 32.1294 24.7316 30.7391C26.1174 29.3492 26.7227 27.3462 26.7227 24.9207H24.7227ZM18.9258 30.7371H7.59766V32.7371H18.9258V30.7371ZM6.59766 31.7371V42.1277H8.59766V31.7371H6.59766ZM7.59766 41.1277H3.59375V43.1277H7.59766V41.1277ZM7.59766 28.7332H18.7109V26.7332H7.59766V28.7332ZM18.7109 28.7332C19.8885 28.7332 20.9795 28.4803 21.7227 27.7371L20.3085 26.3229C20.1142 26.5172 19.6688 26.7332 18.7109 26.7332V28.7332ZM21.7227 27.7371C22.4659 26.9939 22.7188 25.9029 22.7188 24.7253H20.7188C20.7188 25.6832 20.5028 26.1286 20.3085 26.3229L21.7227 27.7371ZM22.7188 24.7253V21.1316H20.7188V24.7253H22.7188ZM22.7188 21.1316C22.7188 19.9541 22.4659 18.863 21.7227 18.1198L20.3085 19.534C20.5028 19.7283 20.7188 20.1737 20.7188 21.1316H22.7188ZM21.7227 18.1198C20.9795 17.3766 19.8885 17.1238 18.7109 17.1238V19.1238C19.6688 19.1238 20.1142 19.3397 20.3085 19.534L21.7227 18.1198ZM18.7109 17.1238H7.59766V19.1238H18.7109V17.1238ZM6.59766 18.1238V27.7332H8.59766V18.1238H6.59766ZM31.6406 16.5808L32.5585 16.9777L32.5623 16.9689L31.6406 16.5808ZM32.5 15.3113L33.1941 16.0311L33.2007 16.0248L33.2071 16.0184L32.5 15.3113ZM33.7695 14.4519L34.1665 15.3698L34.1779 15.3647L33.7695 14.4519ZM52.0703 14.4519L51.6528 15.3606L51.6674 15.3673L51.6823 15.3735L52.0703 14.4519ZM53.3594 15.3113L52.6523 16.0184L52.6587 16.0248L52.6652 16.0311L53.3594 15.3113ZM54.2188 16.5808L53.2971 16.9689L53.3009 16.9777L54.2188 16.5808ZM54.5312 21.7371V22.7371H55.5312V21.7371H54.5312ZM50.5273 21.7371H49.5273V22.7371H50.5273V21.7371ZM50.5273 18.1238H51.5273V17.1238H50.5273V18.1238ZM35.332 18.1238V17.1238H34.332V18.1238H35.332ZM35.332 38.1238H34.332V39.1238H35.332V38.1238ZM50.5273 38.1238V39.1238H51.5273V38.1238H50.5273ZM50.5273 34.53V33.53H49.5273V34.53H50.5273ZM54.5312 34.53H55.5312V33.53H54.5312V34.53ZM54.2188 39.6863L55.1366 40.0832L55.1404 40.0743L54.2188 39.6863ZM52.0703 41.8152L51.6822 40.8935L51.6734 40.8973L52.0703 41.8152ZM33.7695 41.8152L33.3726 42.7331L33.3815 42.7368L33.7695 41.8152ZM32.5 40.9558L31.7929 41.6629L32.5 40.9558ZM31.6406 39.6863L30.7189 40.0744L30.7228 40.0832L31.6406 39.6863ZM32.3281 18.1238C32.3281 17.7076 32.4066 17.3289 32.5585 16.9777L30.7228 16.1839C30.458 16.7962 30.3281 17.4462 30.3281 18.1238H32.3281ZM32.5623 16.9689C32.7212 16.5913 32.9329 16.2831 33.1941 16.0311L31.8059 14.5914C31.338 15.0426 30.9767 15.5807 30.719 16.1928L32.5623 16.9689ZM33.2071 16.0184C33.4809 15.7446 33.7983 15.529 34.1664 15.3698L33.3726 13.534C32.7772 13.7915 32.2483 14.1488 31.7929 14.6042L33.2071 16.0184ZM34.1779 15.3647C34.543 15.2014 34.9246 15.1199 35.332 15.1199V13.1199C34.6457 13.1199 33.9856 13.2597 33.3612 13.5391L34.1779 15.3647ZM35.332 15.1199H50.5273V13.1199H35.332V15.1199ZM50.5273 15.1199C50.9348 15.1199 51.3062 15.2013 51.6528 15.3606L52.4878 13.5432C51.8709 13.2598 51.2137 13.1199 50.5273 13.1199V15.1199ZM51.6823 15.3735C52.0628 15.5338 52.3829 15.749 52.6523 16.0184L54.0665 14.6042C53.6067 14.1444 53.0674 13.7867 52.4584 13.5303L51.6823 15.3735ZM52.6652 16.0311C52.9265 16.2831 53.1382 16.5913 53.2971 16.9689L55.1404 16.1928C54.8827 15.5807 54.5214 15.0426 54.0535 14.5914L52.6652 16.0311ZM53.3009 16.9777C53.4528 17.3289 53.5312 17.7076 53.5312 18.1238H55.5312C55.5312 17.4462 55.4014 16.7962 55.1366 16.1839L53.3009 16.9777ZM53.5312 18.1238V21.7371H55.5312V18.1238H53.5312ZM54.5312 20.7371H50.5273V22.7371H54.5312V20.7371ZM51.5273 21.7371V18.1238H49.5273V21.7371H51.5273ZM50.5273 17.1238H35.332V19.1238H50.5273V17.1238ZM34.332 18.1238V38.1238H36.332V18.1238H34.332ZM35.332 39.1238H50.5273V37.1238H35.332V39.1238ZM51.5273 38.1238V34.53H49.5273V38.1238H51.5273ZM50.5273 35.53H54.5312V33.53H50.5273V35.53ZM53.5312 34.53V38.1238H55.5312V34.53H53.5312ZM53.5312 38.1238C53.5312 38.5399 53.4527 38.9286 53.2971 39.2982L55.1404 40.0743C55.4014 39.4544 55.5312 38.8014 55.5312 38.1238H53.5312ZM53.3009 39.2894C53.1417 39.6575 52.926 39.9749 52.6523 40.2487L54.0665 41.6629C54.5219 41.2075 54.8791 40.6786 55.1366 40.0832L53.3009 39.2894ZM52.6523 40.2487C52.3829 40.5181 52.0628 40.7333 51.6823 40.8936L52.4584 42.7368C53.0674 42.4804 53.6067 42.1227 54.0665 41.6629L52.6523 40.2487ZM51.6734 40.8973C51.3222 41.0492 50.9435 41.1277 50.5273 41.1277V43.1277C51.2049 43.1277 51.8549 42.9978 52.4672 42.733L51.6734 40.8973ZM50.5273 41.1277H35.332V43.1277H50.5273V41.1277ZM35.332 41.1277C34.9159 41.1277 34.5272 41.0492 34.1576 40.8936L33.3815 42.7368C34.0014 42.9979 34.6544 43.1277 35.332 43.1277V41.1277ZM34.1664 40.8973C33.7983 40.7381 33.4809 40.5225 33.2071 40.2487L31.7929 41.6629C32.2483 42.1183 32.7772 42.4756 33.3726 42.733L34.1664 40.8973ZM33.2071 40.2487C32.9333 39.9749 32.7177 39.6575 32.5585 39.2894L30.7228 40.0832C30.9802 40.6786 31.3375 41.2075 31.7929 41.6629L33.2071 40.2487ZM32.5623 39.2982C32.4066 38.9286 32.3281 38.5399 32.3281 38.1238H30.3281C30.3281 38.8014 30.458 39.4544 30.719 40.0743L32.5623 39.2982ZM32.3281 38.1238V18.1238H30.3281V38.1238H32.3281ZM3.59375 85.1277H2.59375V86.1277H3.59375V85.1277ZM3.59375 57.1199V56.1199H2.59375V57.1199H3.59375ZM7.59766 74.7371V73.7371H6.59766V74.7371H7.59766ZM7.59766 85.1277V86.1277H8.59766V85.1277H7.59766ZM7.59766 70.7332H6.59766V71.7332H7.59766V70.7332ZM7.59766 61.1238V60.1238H6.59766V61.1238H7.59766ZM4.59375 85.1277V57.1199H2.59375V85.1277H4.59375ZM3.59375 58.1199H18.9258V56.1199H3.59375V58.1199ZM18.9258 58.1199C21.0365 58.1199 22.4361 58.6483 23.3153 59.5301C24.1951 60.4124 24.7227 61.8176 24.7227 63.9363H26.7227C26.7227 61.5107 26.1174 59.5077 24.7316 58.1179C23.3452 56.7275 21.3463 56.1199 18.9258 56.1199V58.1199ZM24.7227 63.9363V67.9207H26.7227V63.9363H24.7227ZM24.7227 67.9207C24.7227 70.0394 24.1951 71.4446 23.3153 72.3269C22.4361 73.2086 21.0365 73.7371 18.9258 73.7371V75.7371C21.3463 75.7371 23.3452 75.1294 24.7316 73.7391C26.1174 72.3492 26.7227 70.3462 26.7227 67.9207H24.7227ZM18.9258 73.7371H7.59766V75.7371H18.9258V73.7371ZM6.59766 74.7371V85.1277H8.59766V74.7371H6.59766ZM7.59766 84.1277H3.59375V86.1277H7.59766V84.1277ZM7.59766 71.7332H18.7109V69.7332H7.59766V71.7332ZM18.7109 71.7332C19.8885 71.7332 20.9795 71.4803 21.7227 70.7371L20.3085 69.3229C20.1142 69.5172 19.6688 69.7332 18.7109 69.7332V71.7332ZM21.7227 70.7371C22.4659 69.9939 22.7188 68.9029 22.7188 67.7253H20.7188C20.7188 68.6832 20.5028 69.1286 20.3085 69.3229L21.7227 70.7371ZM22.7188 67.7253V64.1316H20.7188V67.7253H22.7188ZM22.7188 64.1316C22.7188 62.9541 22.4659 61.863 21.7227 61.1198L20.3085 62.534C20.5028 62.7283 20.7188 63.1737 20.7188 64.1316H22.7188ZM21.7227 61.1198C20.9795 60.3766 19.8885 60.1238 18.7109 60.1238V62.1238C19.6688 62.1238 20.1142 62.3397 20.3085 62.534L21.7227 61.1198ZM18.7109 60.1238H7.59766V62.1238H18.7109V60.1238ZM6.59766 61.1238V70.7332H8.59766V61.1238H6.59766ZM35.332 57.1199H36.332V56.1199H35.332V57.1199ZM35.332 81.1238H34.332V82.1238H35.332V81.1238ZM49.7266 81.1238H50.7266V80.1238H49.7266V81.1238ZM49.7266 85.1277V86.1277H50.7266V85.1277H49.7266ZM31.3281 85.1277H30.3281V86.1277H31.3281V85.1277ZM31.3281 57.1199V56.1199H30.3281V57.1199H31.3281ZM34.332 57.1199V81.1238H36.332V57.1199H34.332ZM35.332 82.1238H49.7266V80.1238H35.332V82.1238ZM48.7266 81.1238V85.1277H50.7266V81.1238H48.7266ZM49.7266 84.1277H31.3281V86.1277H49.7266V84.1277ZM32.3281 85.1277V57.1199H30.3281V85.1277H32.3281ZM31.3281 58.1199H35.332V56.1199H31.3281V58.1199ZM66.9336 57.1199L67.8666 56.7601L67.6197 56.1199H66.9336V57.1199ZM77.7344 85.1277V86.1277H79.1918L78.6674 84.7679L77.7344 85.1277ZM73.7305 85.1277L72.7972 85.4869L73.0438 86.1277H73.7305V85.1277ZM71.25 78.6824L72.1833 78.3232L71.9366 77.6824H71.25V78.6824ZM58.6133 78.6824V77.6824H57.9266L57.68 78.3232L58.6133 78.6824ZM56.1328 85.1277V86.1277H56.8195L57.0661 85.4869L56.1328 85.1277ZM52.1289 85.1277L51.1959 84.7679L50.6715 86.1277H52.1289V85.1277ZM62.9297 57.1199V56.1199H62.2435L61.9967 56.7601L62.9297 57.1199ZM60.1367 74.6785L59.2048 74.3157L58.6744 75.6785H60.1367V74.6785ZM69.707 74.6785V75.6785H71.165L70.6399 74.3183L69.707 74.6785ZM64.9414 62.3347L65.8743 61.9746L64.9452 59.5681L64.0095 61.972L64.9414 62.3347ZM66.0006 57.4797L76.8013 85.4875L78.6674 84.7679L67.8666 56.7601L66.0006 57.4797ZM77.7344 84.1277H73.7305V86.1277H77.7344V84.1277ZM74.6637 84.7685L72.1833 78.3232L70.3167 79.0415L72.7972 85.4869L74.6637 84.7685ZM71.25 77.6824H58.6133V79.6824H71.25V77.6824ZM57.68 78.3232L55.1995 84.7685L57.0661 85.4869L59.5466 79.0415L57.68 78.3232ZM56.1328 84.1277H52.1289V86.1277H56.1328V84.1277ZM53.0619 85.4875L63.8627 57.4797L61.9967 56.7601L51.1959 84.7679L53.0619 85.4875ZM62.9297 58.1199H66.9336V56.1199H62.9297V58.1199ZM60.1367 75.6785H69.707V73.6785H60.1367V75.6785ZM70.6399 74.3183L65.8743 61.9746L64.0085 62.6949L68.7741 75.0386L70.6399 74.3183ZM64.0095 61.972L59.2048 74.3157L61.0686 75.0412L65.8733 62.6974L64.0095 61.972ZM86.543 85.1277V86.1277H87.543V85.1277H86.543ZM82.5391 85.1277H81.5391V86.1277H82.5391V85.1277ZM82.5391 57.1199V56.1199H81.5391V57.1199H82.5391ZM86.543 57.1199L87.3333 56.5072L87.0331 56.1199H86.543V57.1199ZM103.379 78.8386L102.589 79.4513L104.379 81.7609V78.8386H103.379ZM103.379 57.1199V56.1199H102.379V57.1199H103.379ZM107.383 57.1199H108.383V56.1199H107.383V57.1199ZM107.383 85.1277V86.1277H108.383V85.1277H107.383ZM103.379 85.1277L102.589 85.7403L102.889 86.1277H103.379V85.1277ZM86.543 63.4089L87.3333 62.7963L85.543 60.4867V63.4089H86.543ZM86.543 84.1277H82.5391V86.1277H86.543V84.1277ZM83.5391 85.1277V57.1199H81.5391V85.1277H83.5391ZM82.5391 58.1199H86.543V56.1199H82.5391V58.1199ZM85.7526 57.7325L102.589 79.4513L104.169 78.226L87.3333 56.5072L85.7526 57.7325ZM104.379 78.8386V57.1199H102.379V78.8386H104.379ZM103.379 58.1199H107.383V56.1199H103.379V58.1199ZM106.383 57.1199V85.1277H108.383V57.1199H106.383ZM107.383 84.1277H103.379V86.1277H107.383V84.1277ZM104.169 84.515L87.3333 62.7963L85.7526 64.0216L102.589 85.7403L104.169 84.515ZM85.543 63.4089V85.1277H87.543V63.4089H85.543ZM114.57 57.1199V56.1199H113.57V57.1199H114.57ZM134.98 57.1199H135.98V56.1199H134.98V57.1199ZM134.98 61.1238V62.1238H135.98V61.1238H134.98ZM118.574 61.1238V60.1238H117.574V61.1238H118.574ZM118.574 69.1316H117.574V70.1316H118.574V69.1316ZM132.578 69.1316H133.578V68.1316H132.578V69.1316ZM132.578 73.1355V74.1355H133.578V73.1355H132.578ZM118.574 73.1355V72.1355H117.574V73.1355H118.574ZM118.574 81.1238H117.574V82.1238H118.574V81.1238ZM134.98 81.1238H135.98V80.1238H134.98V81.1238ZM134.98 85.1277V86.1277H135.98V85.1277H134.98ZM114.57 85.1277H113.57V86.1277H114.57V85.1277ZM114.57 58.1199H134.98V56.1199H114.57V58.1199ZM133.98 57.1199V61.1238H135.98V57.1199H133.98ZM134.98 60.1238H118.574V62.1238H134.98V60.1238ZM117.574 61.1238V69.1316H119.574V61.1238H117.574ZM118.574 70.1316H132.578V68.1316H118.574V70.1316ZM131.578 69.1316V73.1355H133.578V69.1316H131.578ZM132.578 72.1355H118.574V74.1355H132.578V72.1355ZM117.574 73.1355V81.1238H119.574V73.1355H117.574ZM118.574 82.1238H134.98V80.1238H118.574V82.1238ZM133.98 81.1238V85.1277H135.98V81.1238H133.98ZM134.98 84.1277H114.57V86.1277H134.98V84.1277ZM115.57 85.1277V57.1199H113.57V85.1277H115.57ZM138.574 57.1199V56.1199H137.574V57.1199H138.574ZM160.977 57.1199H161.977V56.1199H160.977V57.1199ZM160.977 61.1238V62.1238H161.977V61.1238H160.977ZM151.777 61.1238V60.1238H150.777V61.1238H151.777ZM151.777 85.1277V86.1277H152.777V85.1277H151.777ZM147.773 85.1277H146.773V86.1277H147.773V85.1277ZM147.773 61.1238H148.773V60.1238H147.773V61.1238ZM138.574 61.1238H137.574V62.1238H138.574V61.1238ZM138.574 58.1199H160.977V56.1199H138.574V58.1199ZM159.977 57.1199V61.1238H161.977V57.1199H159.977ZM160.977 60.1238H151.777V62.1238H160.977V60.1238ZM150.777 61.1238V85.1277H152.777V61.1238H150.777ZM151.777 84.1277H147.773V86.1277H151.777V84.1277ZM148.773 85.1277V61.1238H146.773V85.1277H148.773ZM147.773 60.1238H138.574V62.1238H147.773V60.1238ZM139.574 61.1238V57.1199H137.574V61.1238H139.574Z" fill="black"/>
<defs>
<filter id="filter0_d_248_70" x="62.6124" y="2" width="101.251" height="55.3643" filterUnits="userSpaceOnUse" color-interpolation-filters="sRGB">
<feFlood flood-opacity="0" result="BackgroundImageFix"/>
<feColorMatrix in="SourceAlpha" type="matrix" values="0 0 0 0 0 0 0 0 0 0 0 0 0 0 0 0 0 0 127 0" result="hardAlpha"/>
<feOffset dy="1.38762"/>
<feGaussianBlur stdDeviation="0.693808"/>
<feComposite in2="hardAlpha" operator="out"/>
<feColorMatrix type="matrix" values="0 0 0 0 0 0 0 0 0 0 0 0 0 0 0 0 0 0 0.25 0"/>
<feBlend mode="normal" in2="BackgroundImageFix" result="effect1_dropShadow_248_70"/>
<feBlend mode="normal" in="SourceGraphic" in2="effect1_dropShadow_248_70" result="shape"/>
</filter>
</defs>
</svg>
