<svg width="30" height="30" viewBox="0 0 30 30" fill="none" xmlns="http://www.w3.org/2000/svg">
<path d="M20.145 9C20.145 7.8375 20.145 7.25625 20.0214 6.77937C19.6858 5.48537 18.7076 4.4745 17.4553 4.12775C16.9938 4 16.4313 4 15.3063 4H7.80632C5.77382 4 4.75769 4 3.98132 4.40875C3.29846 4.76825 2.74334 5.34188 2.39543 6.0475C1.99987 6.84975 1.99987 7.89975 1.99987 10L1.99987 20.5C1.99987 22.6002 1.99987 23.6503 2.39543 24.4525C2.74334 25.1581 3.29846 25.7317 3.98132 26.0913C4.75769 26.5 5.77382 26.5 7.80632 26.5H15.3063C16.4313 26.5 16.9938 26.5 17.4553 26.3722C18.7076 26.0255 19.6858 25.0147 20.0214 23.7206C20.145 23.2437 20.145 22.6625 20.145 21.5" stroke="currentColor" stroke-width="2" stroke-linecap="round" stroke-linejoin="round"/>
<path d="M23.8871 10L28.7258 15M28.7258 15L23.8871 20M28.7258 15C22.5845 15 19.1413 15 13 15" stroke="currentColor" stroke-width="2" stroke-linecap="round" stroke-linejoin="round"/>
</svg>
