<svg width="31" height="31" viewBox="0 0 31 31" fill="none" xmlns="http://www.w3.org/2000/svg">
<path d="M8 21.75C8 22.9125 8 23.4938 8.12778 23.9706C8.47453 25.2646 9.48534 26.2755 10.7794 26.6223C11.2563 26.75 11.8375 26.75 13 26.75H20.75C22.8503 26.75 23.9002 26.75 24.7025 26.3413C25.4081 25.9818 25.9818 25.4081 26.3413 24.7025C26.75 23.9002 26.75 22.8503 26.75 20.75V10.25C26.75 8.1498 26.75 7.0997 26.3413 6.29754C25.9818 5.59193 25.4081 5.01825 24.7025 4.65873C23.9002 4.25 22.8503 4.25 20.75 4.25H13C11.8375 4.25 11.2563 4.25 10.7794 4.37778C9.48534 4.72453 8.47453 5.73534 8.12778 7.02942C8 7.5063 8 8.08754 8 9.25M15.5 10.5L20.5 15.5M20.5 15.5L15.5 20.5M20.5 15.5H4.25" stroke="currentColor" stroke-width="2" stroke-linecap="round" stroke-linejoin="round"/>
</svg>
