<svg width="30" height="30" viewBox="0 0 30 30" fill="none" xmlns="http://www.w3.org/2000/svg">
<path d="M29.9072 19.4247C29.7097 18.9426 29.2445 18.6512 28.7524 18.6506C28.7499 18.6506 28.7474 18.65 28.7449 18.65C28.7368 18.65 28.7299 18.6531 28.7218 18.6537C28.6255 18.6562 28.5292 18.6719 28.4336 18.6975C28.3979 18.7069 28.3642 18.7163 28.3298 18.7282C28.3123 18.7344 28.2941 18.7369 28.276 18.7438C26.7073 19.3884 25.041 19.7154 23.3222 19.7154C16.1338 19.7154 10.2853 13.8669 10.2853 6.6785C10.2853 4.95971 10.6117 3.29344 11.2569 1.72471C11.2663 1.70283 11.2694 1.67969 11.2769 1.65719C11.2863 1.62968 11.2944 1.60216 11.3019 1.5734C11.3301 1.47024 11.3476 1.36645 11.3488 1.26266C11.3488 1.25828 11.3507 1.25391 11.3507 1.2489C11.3507 1.24765 11.3501 1.24578 11.3501 1.24453C11.3501 1.1695 11.3413 1.09572 11.3276 1.02319C11.3244 1.00756 11.3219 0.991929 11.3188 0.976298C11.3026 0.904395 11.2819 0.833118 11.2532 0.765592C11.2419 0.739332 11.2263 0.716823 11.2138 0.691813C11.0831 0.431088 10.8668 0.211628 10.5754 0.0922069C10.2347 -0.047222 9.87014 -0.0222123 9.56252 0.124719C9.55939 0.12597 9.55564 0.126595 9.55252 0.128471C7.68367 0.896892 5.99677 2.02483 4.53871 3.48289C-1.51301 9.5421 -1.51301 19.4009 4.53933 25.4614C7.56925 28.4875 11.5483 30 15.5279 30C19.5076 30 23.4873 28.4869 26.5178 25.4607C27.9709 24.0071 29.0969 22.3258 29.8654 20.4632C29.8691 20.4563 29.8704 20.4482 29.8735 20.4407C29.9091 20.3663 29.9379 20.2888 29.9585 20.2081C29.9598 20.2018 29.9623 20.1962 29.9641 20.19C30.0235 19.9436 30.011 19.6773 29.9072 19.4247ZM24.7509 23.6926C19.6658 28.7702 11.3926 28.7702 6.30876 23.6926C1.23055 18.6081 1.23055 10.3349 6.30814 5.25107C6.85085 4.70836 7.43732 4.23005 8.05194 3.79926C7.87562 4.74213 7.78433 5.70312 7.78433 6.67912C7.78433 15.2468 14.7545 22.217 23.3222 22.217C24.2976 22.217 25.2592 22.1257 26.2021 21.9494C25.7706 22.5634 25.2936 23.1499 24.7509 23.6926Z" fill="currentColor"/>
</svg>
