<svg width="31" height="31" viewBox="0 0 31 31" fill="none" xmlns="http://www.w3.org/2000/svg">
<path d="M23.6066 11.8776C24.0901 17.857 19.6303 23.0367 13.6454 23.4468C7.6605 23.8568 2.41677 19.3419 1.93324 13.3624C1.4497 7.38294 5.90947 2.20324 11.8944 1.79322C17.8793 1.3832 23.123 5.89812 23.6066 11.8776Z" stroke="currentColor" stroke-width="1.03448"/>
<path d="M20.0532 20.7098C19.854 20.5079 19.8689 20.1968 20.0866 20.0149V20.0149C20.3042 19.833 20.6421 19.8492 20.8413 20.0511L30.1393 29.4756C30.3385 29.6776 30.3236 29.9887 30.106 30.1706V30.1706C29.8883 30.3525 29.5504 30.3363 29.3512 30.1344L20.0532 20.7098Z" fill="currentColor"/>
</svg>
