<svg width="30" height="30" viewBox="0 0 30 30" fill="none" xmlns="http://www.w3.org/2000/svg">
<path d="M26.6667 4.1665H3.33333C2.44928 4.1665 1.60143 4.51769 0.976311 5.14281C0.35119 5.76794 0 6.61578 0 7.49984L0 14.9998H30V7.49984C30 6.61578 29.6488 5.76794 29.0237 5.14281C28.3986 4.51769 27.5507 4.1665 26.6667 4.1665Z" fill="#005BBB"/>
<path d="M30 22.5C30 23.3841 29.6488 24.2319 29.0237 24.857C28.3986 25.4821 27.5507 25.8333 26.6667 25.8333H3.33333C2.44928 25.8333 1.60143 25.4821 0.976311 24.857C0.35119 24.2319 0 23.3841 0 22.5V15H30V22.5Z" fill="#FFD500"/>
</svg>
